<svg width="129" height="48" viewBox="0 0 129 48" fill="none" xmlns="http://www.w3.org/2000/svg">
<path d="M0 14.5714C0 6.52385 6.52385 0 14.5714 0H114C122.048 0 128.571 6.52385 128.571 14.5714V33.4286C128.571 41.4762 122.048 48 114 48H14.5714C6.52385 48 0 41.4762 0 33.4286V14.5714Z" fill="#FFED84"/>
<path fill-rule="evenodd" clip-rule="evenodd" d="M41.1865 19.9921C41.1865 15.8569 43.1563 13.8463 47.2107 13.8463C51.2634 13.8463 53.2341 15.8569 53.2341 19.9921V28.0082C53.2341 32.1433 51.2651 34.1539 47.2107 34.1539C43.1563 34.1539 41.1865 32.1433 41.1865 28.0082V19.9921ZM47.2107 30.9701C48.917 30.9701 49.9049 30.426 49.9049 27.6452V20.3551C49.9049 17.5742 48.9178 17.0301 47.2107 17.0301C45.5036 17.0301 44.5149 17.5742 44.5149 20.3551V27.6452C44.5149 30.426 45.5045 30.9701 47.2107 30.9701ZM111.22 17.1939C111.818 16.5036 112.674 16.1474 113.889 16.1474C116.798 16.1474 118.097 17.8562 118.097 21.687V28.6132C118.097 30.5311 117.781 31.8939 117.132 32.7789C116.455 33.7039 115.394 34.1536 113.889 34.1536C111.385 34.1536 110.928 32.7721 110.71 31.5454V34.0321H107.381V13.9676H110.71V18.9835C110.795 18.1359 110.881 17.585 111.22 17.1939ZM112.726 31.1399C114.05 31.1399 114.767 30.64 114.767 28.0079V22.2685C114.767 19.656 114.05 19.162 112.726 19.162C111.219 19.162 110.71 19.616 110.71 20.961V29.3163C110.71 30.6791 111.219 31.1399 112.726 31.1399ZM101.642 16.1479C103.481 16.1479 104.702 16.4828 105.482 17.2021C106.278 17.9357 106.648 19.092 106.648 20.8399V34.0326H103.319V31.5816L103.314 31.6603C103.285 32.0675 103.244 32.659 102.77 33.2385C102.228 33.9025 101.283 34.1541 100.043 34.1541C98.8023 34.1541 97.9046 33.8396 97.2967 33.1943C96.9116 32.7845 96.6481 32.2472 96.5027 31.5697L96.5025 31.5689V34.0321H87.7009V13.9676H91.0292V30.8006H96.3938C96.3768 30.5908 96.3684 30.3716 96.3684 30.1406V27.5722C96.3684 24.1113 99.0837 23.6904 101.478 23.3198C102.137 23.2178 102.759 23.1208 103.319 22.9687V21.2029C103.319 19.6777 102.954 19.2824 101.545 19.2824C100.304 19.2824 99.9637 19.5859 99.9637 20.6945V22.3344H96.6353V20.3068C96.6353 17.4699 98.2259 16.1479 101.642 16.1479ZM101.06 31.3818C102.728 31.3818 103.319 30.9805 103.319 29.8489V25.4919C103.034 25.5438 102.765 25.5914 102.504 25.6364C100.49 25.985 99.6729 26.1712 99.6729 27.2823V29.752C99.6729 30.9099 100.074 31.3818 101.06 31.3818ZM79.1637 26.3064V21.0822C79.1637 17.7156 77.4813 16.1479 73.8673 16.1479C71.091 16.1479 69.3969 17.174 68.7612 19.4163V17.2867H66.2176V16.9168C66.2176 16.5632 66.3255 16.4501 66.6605 16.4501H68.8335V13.9694H65.8614C63.9613 13.9694 62.9139 15.0423 62.9139 16.99V17.2875H61.2152V17.2867H58.6724V16.9168C58.6724 16.5632 58.7795 16.4501 59.1145 16.4501H61.2875V13.9694H58.3154C56.4153 13.9694 55.3679 15.0423 55.3679 16.99V17.2875H53.6242V19.9859H55.3679V34.0321H58.6724V19.985H61.1702V19.9859H62.9139V34.0321H62.913L62.9139 34.033V34.0321H66.2176V19.985H68.6277C68.524 20.5239 68.473 21.1231 68.473 21.7844V28.493C68.473 30.439 68.8794 31.8264 69.7177 32.7335C70.601 33.6891 71.9901 34.1541 73.9642 34.1541C77.4634 34.1541 79.1637 32.6902 79.1637 29.6798V27.5068H75.8354V29.2683C75.8354 30.4959 75.2581 31.0426 73.9642 31.0426C72.4212 31.0426 71.7767 30.6285 71.7767 28.0577V26.3064H79.1637ZM71.7767 22.2205C71.7767 19.7304 72.4943 19.2586 73.818 19.2586C75.1417 19.2586 75.8354 19.6003 75.8354 21.4698V23.2688H71.7767V22.2205ZM79.8609 16.2692V34.0331V34.034H83.1892V21.2774C83.1892 20.0762 84.3225 19.8237 85.2738 19.8237C85.7754 19.8237 86.3306 19.8968 86.8364 20.0303L87.0404 20.0838V16.219L86.9002 16.1986C86.7276 16.174 86.549 16.1485 86.2472 16.1485C84.3573 16.1485 83.4171 17.3582 83.1892 18.9846V16.2692H79.8609Z" fill="#342E26"/>
<path fill-rule="evenodd" clip-rule="evenodd" d="M30.8745 12H16.6977L10.2861 24.7928V32.5884C10.2861 34.4724 11.8125 36 13.6965 36H21.4921L34.2861 29.57V15.4104C34.2861 13.5264 32.7589 12 30.8745 12ZM31.8893 27.3888H18.8985V14.3968H30.7981C31.4005 14.3968 31.8897 14.8852 31.8897 15.4876V27.3892L31.8893 27.3888Z" fill="#342E26"/>
</svg>
