<svg xmlns="http://www.w3.org/2000/svg" width="240" height="240" viewBox="0 0 240 240">
  <g fill="none" fill-rule="evenodd">
    <path fill="#FFED84" fill-rule="nonzero" d="M92.0474538,0.00024196557 L147.952537,0.00024196557 L154.243311,0.0078797412 C181.159749,0.0749755823 195.780805,0.700869623 207.239,6.53943343 C218.529,12.2918234 227.708,21.4706234 233.46,32.7604234 C239.673,44.9533884 239.98365,60.7264807 239.999182,91.0837654 L239.995543,152.48944 C239.949354,180.529247 239.42448,195.534215 233.46,207.238823 C227.708,218.528823 218.529,227.707823 207.239,233.459823 C195.041566,239.675439 179.259996,239.983734 148.877693,239.999823 L94.5506,239.999823 L202.44,185.777 L54.0318359,185.777167 L54.031,37.633 L0,145.440823 L0.00445656111,87.5101691 C0.0506427398,59.4702783 0.57548568,44.4656698 6.53961,32.7604234 C12.292,21.4706234 21.4708,12.2918234 32.7606,6.53943343 C44.696871,0.457596131 60.0641138,0.0318675195 89.1859288,0.00024196557 L92.0474538,0.00024196557 Z"/>
    <path fill="#342E26" d="M94.5506,239.999823 C61.911,239.999823 45.4094,239.904823 32.7606,233.459823 C21.4708,227.707823 12.292,218.528823 6.53961,207.238823 C0.0941431,194.588823 0,178.085823 0,145.440823 L54.0984,37.4998234 L173.715,37.4998234 C189.613,37.4998234 202.5,50.3783234 202.5,66.2761234 L202.5,185.747823 L94.5506,239.999823 Z M182.278,167.342823 L72.6656,167.342823 L72.6656,57.7217234 L173.067,57.7217234 C178.15,57.7217234 182.278,61.8411234 182.278,66.9243234 L182.278,167.342823 Z"/>
  </g>
</svg>
