<svg xmlns="http://www.w3.org/2000/svg" width="24" height="24" fill="none" viewBox="0 0 24 24">
  <path stroke="currentColor" stroke-linecap="round" stroke-width="2" d="M15.175 12.75c0 1.817-1.541 3.29-3.442 3.29-1.901 0-3.442-1.473-3.442-3.29M5.638 8.02l1.239-4.054a.548.548 0 0 1 .682-.365l5.087 1.53c.29.088.454.393.367.683l-.803 2.569m4.752 0V2.321a.548.548 0 0 0-.549-.548H11.65a.548.548 0 0 0-.548.548v2.345M5 22.182l13.423.045a2.193 2.193 0 0 0 2.191-2.394l-.868-9.457a2.193 2.193 0 0 0-2.184-1.993H5.773a2.193 2.193 0 0 0-2.185 2.016l-.766 9.412A2.194 2.194 0 0 0 5 22.182Z"/>
</svg>
