<svg xmlns="http://www.w3.org/2000/svg" width="24" height="24" fill="none" viewBox="0 0 24 24">
  <path fill="currentColor" d="M20.226 7.6a2.2 2.2 0 0 1 2.199 2.252l-.02.246-1.472 10.8a2.2 2.2 0 0 1-2.18 1.902H5.248a2.2 2.2 0 0 1-2.144-1.701l-.037-.201-1.472-10.8A2.201 2.201 0 0 1 3.775 7.6h16.45Zm-16.45 2a.2.2 0 0 0-.199.227l1.473 10.8.022.07a.2.2 0 0 0 .176.103h13.505a.2.2 0 0 0 .198-.173l1.473-10.8v-.044a.2.2 0 0 0-.198-.183H3.776ZM19.8 4.4a1.001 1.001 0 0 1 0 2H4.2a1 1 0 0 1 0-2h15.6ZM18 1.2a1.001 1.001 0 0 1 0 2H6a1 1 0 0 1 0-2h12Z"/>
</svg>
