<?xml version="1.0" encoding="UTF-8"?>
<svg id="Layer_1" data-name="Layer 1" xmlns="http://www.w3.org/2000/svg" viewBox="0 0 1200 240">
  <defs>
    <style>
      .cls-1 {
        fill: #342e26;
        fill-rule: evenodd;
      }
    </style>
  </defs>
  <path class="cls-1" d="M1150.51,27.63c-14.29,0-24.36,4.19-31.39,12.31-3.99,4.6-5,11.08-6.01,21.05V1.99h-39.15v236.01h39.15v-29.25c2.57,14.43,7.95,30.68,37.4,30.68,17.7,0,30.18-5.29,38.15-16.17,7.63-10.41,11.34-26.44,11.34-49v-81.47c0-45.06-15.27-65.16-49.49-65.16ZM1160.84,167.14c0,30.96-8.44,36.84-24.01,36.84-17.73,0-23.72-5.42-23.72-21.45v-98.28c0-15.82,5.99-21.16,23.72-21.16,15.57,0,24.01,5.81,24.01,36.54v67.51Z"/>
  <path class="cls-1" d="M1051.62,40.03c-9.18-8.46-23.54-12.4-45.17-12.4-40.18,0-58.89,15.55-58.89,48.92v23.85h39.15v-19.29c0-13.04,4-16.61,18.6-16.61,16.58,0,20.87,4.65,20.87,22.59v20.77c-6.59,1.79-13.91,2.93-21.66,4.13-28.16,4.36-60.1,9.31-60.1,50.02v30.21c0,2.72.1,5.3.3,7.77.25,3.22.68,6.24,1.28,9.04,1.71,7.97,4.81,14.29,9.34,19.11,7.15,7.59,17.71,11.29,32.3,11.29s25.7-2.96,32.08-10.77c5.94-7.27,6.1-14.7,6.46-19.49v28.83h39.15V82.82c0-20.56-4.35-34.16-13.71-42.79ZM1026.18,188.79c0,13.31-6.95,18.03-26.57,18.03-11.6,0-16.32-5.55-16.32-19.17v-29.05c0-13.07,9.61-15.26,33.3-19.36,3.07-.53,6.23-1.09,9.59-1.7v51.25Z"/>
  <path class="cls-1" d="M742.05,147.12v-61.45c0-39.6-19.79-58.04-62.3-58.04-32.67,0-52.6,12.08-60.07,38.48-.61,2.12-1.13,4.34-1.56,6.65-1.22,6.34-1.82,13.39-1.82,21.17v78.91c0,22.89,4.78,39.21,14.64,49.88,10.39,11.24,26.73,16.71,49.95,16.71,41.16,0,61.16-17.22,61.16-52.63v-25.56h-39.15v20.72c0,14.44-6.79,20.87-22.01,20.87-18.15,0-25.73-4.87-25.73-35.11v-20.6h86.89ZM655.16,99.06c0-29.29,8.44-34.84,24.01-34.84s23.73,4.02,23.73,26.01v21.16h-47.74v-12.33Z"/>
  <path class="cls-1" d="M366.2.56c-47.69,0-70.86,23.65-70.86,72.29v94.29c0,48.64,23.17,72.29,70.86,72.29s70.85-23.65,70.85-72.29v-94.29c0-48.64-23.18-72.29-70.85-72.29ZM397.89,162.87c0,32.71-11.62,39.11-31.69,39.11s-31.71-6.4-31.71-39.11v-85.75c0-32.71,11.63-39.11,31.71-39.11s31.69,6.4,31.69,39.11v85.75Z"/>
  <path class="cls-1" d="M842.47,238.01V1.99h39.15v198h64.38v38.01h-103.53Z"/>
  <path class="cls-1" d="M750.25,238.01V29.06h39.15v31.94c2.68-19.13,13.74-33.36,35.97-33.36,3.55,0,5.65.3,7.68.59l1.65.24v45.46l-2.4-.63c-5.95-1.57-12.48-2.43-18.38-2.43-11.19,0-24.52,2.97-24.52,17.1v150.05h-39.15Z"/>
  <path class="cls-1" d="M550.91,238.01V72.78h-20.51v-31.74h20.51v-3.5c0-22.91,12.32-35.53,34.67-35.53h34.96v29.18h-25.56c-3.94,0-5.21,1.33-5.21,5.49v4.35h29.92v31.74h-29.92v165.23h-38.87Z"/>
  <path class="cls-1" d="M462.15,238.01V72.78h-20.51v-31.74h20.51v-3.5c0-22.91,12.32-35.53,34.67-35.53h34.96v29.18h-25.56c-3.94,0-5.2,1.33-5.2,5.49v4.35h29.91v31.74h-29.91v165.23h-38.87Z"/>
  <path class="cls-1" d="M203.68.57H63.43L0,127.13v77.12c0,18.64,15.1,33.75,33.74,33.75h77.12l126.57-63.61V34.31c0-18.64-15.11-33.74-33.75-33.74ZM213.72,152.81H85.2V24.28h117.72c5.96,0,10.8,4.83,10.8,10.79v117.74Z"/>
</svg>