<svg xmlns="http://www.w3.org/2000/svg" width="24" height="24" fill="currentColor" viewBox="0 0 24 24">
  <path d="M19.165.756a1 1 0 0 1 1 1v2.252h2.253a1 1 0 1 1 0 2h-2.253V8.26a1 1 0 1 1-2 0V6.008h-2.252a1 1 0 1 1 0-2h2.252V1.756a1 1 0 0 1 1-1Z"/>
  <path fill-rule="evenodd" d="M13.14 3.229a1 1 0 0 0-1-1H6.324A4.324 4.324 0 0 0 2 6.552v11.633a4.324 4.324 0 0 0 4.324 4.323h11.632a4.324 4.324 0 0 0 4.323-4.323v-5.816a1 1 0 1 0-2 0v2.116l-2.24-2.108a2.108 2.108 0 0 0-2.935.044l-2.964 2.965-.726-.726a2.108 2.108 0 0 0-2.98 0l-4.301 4.301A2.32 2.32 0 0 1 4 18.185V6.552A2.324 2.324 0 0 1 6.324 4.23h5.816a1 1 0 0 0 1-1ZM5.547 20.375l4.3-4.3a.108.108 0 0 1 .153 0l1.432 1.432a1 1 0 0 0 1.415 0l3.671-3.671a.108.108 0 0 1 .15-.003l3.611 3.399v.953a2.324 2.324 0 0 1-2.323 2.323H6.324c-.273 0-.534-.047-.777-.133Z" clip-rule="evenodd"/>
  <path fill-rule="evenodd" d="M8.774 6.178a3.082 3.082 0 1 1 0 6.164 3.082 3.082 0 0 1 0-6.164ZM9.856 9.26a1.082 1.082 0 1 0-2.164 0 1.082 1.082 0 0 0 2.164 0Z" clip-rule="evenodd"/>
</svg>
