<svg xmlns="http://www.w3.org/2000/svg" width="24" height="24" fill="currentColor" viewBox="0 0 24 24">
  <g clip-path="url(#a)">
    <path d="M15.352 3.994A.542.542 0 0 0 15 4.5c0 .225.14.427.352.506L18 6l.994 2.648a.54.54 0 0 0 1.012 0L21 6l2.648-.994A.542.542 0 0 0 24 4.5a.542.542 0 0 0-.352-.506L21 3 20.006.352A.542.542 0 0 0 19.5 0a.542.542 0 0 0-.506.352L18 3l-2.648.994Zm-5.738-.558a.747.747 0 0 0-1.36 0L5.78 8.78.436 11.25a.749.749 0 0 0-.436.684c0 .296.169.558.436.68l5.348 2.47 2.466 5.344a.747.747 0 0 0 1.36 0l2.47-5.348 5.348-2.47a.747.747 0 0 0 0-1.36l-5.344-2.466-2.47-5.348ZM18 18l-2.648.994A.542.542 0 0 0 15 19.5c0 .225.14.427.352.506L18 21l.994 2.648a.54.54 0 0 0 1.012 0L21 21l2.648-.994A.542.542 0 0 0 24 19.5a.542.542 0 0 0-.352-.506L21 18l-.994-2.648A.542.542 0 0 0 19.5 15a.542.542 0 0 0-.506.352L18 18Z"/>
  </g>
  <defs>
    <clipPath id="a">
      <path d="M0 0h24v24H0z"/>
    </clipPath>
  </defs>
</svg>
