<svg width="24" height="24" viewBox="0 0 24 24" fill="none" xmlns="http://www.w3.org/2000/svg">
<path d="M5.5 2C5.73834 2 5.94349 2.16863 5.99023 2.40234C6.12675 3.08464 6.39371 3.6677 6.80371 4.10938C7.20947 4.54635 7.78135 4.87336 8.58203 5.00684C8.82313 5.04702 9 5.25558 9 5.5C9 5.74442 8.82313 5.95298 8.58203 5.99316C7.78135 6.12664 7.20947 6.45365 6.80371 6.89062C6.39371 7.3323 6.12675 7.91536 5.99023 8.59766C5.94349 8.83137 5.73834 9 5.5 9C5.26166 9 5.05651 8.83137 5.00977 8.59766C4.87325 7.91536 4.60629 7.3323 4.19629 6.89062C3.79053 6.45365 3.21865 6.12664 2.41797 5.99316C2.17687 5.95298 2 5.74442 2 5.5C2 5.25558 2.17687 5.04702 2.41797 5.00684C3.21865 4.87336 3.79053 4.54635 4.19629 4.10938C4.60629 3.6677 4.87325 3.08464 5.00977 2.40234L5.03418 2.31738C5.10805 2.12866 5.29148 2 5.5 2Z" fill="currentColor"/>
<path d="M14.5 7L18.5 11M5.6628 16.5231L5.18411 19.3952C5.12201 19.7678 5.09096 19.9541 5.14874 20.0888C5.19931 20.2067 5.29326 20.3007 5.41116 20.3512C5.54587 20.409 5.73216 20.378 6.10474 20.3159L8.97691 19.8372C9.72811 19.712 10.1037 19.6494 10.4542 19.521C10.7652 19.407 11.0608 19.2549 11.3343 19.068C11.6425 18.8575 11.9118 18.5882 12.4503 18.0497L20 10.5C21.3807 9.11928 21.3807 6.8807 20 5.49999C18.6193 4.11928 16.3807 4.11928 15 5.49999L7.45024 13.0497C6.91173 13.5882 6.64248 13.8575 6.43195 14.1657C6.24511 14.4392 6.09297 14.7348 5.97901 15.0458C5.8506 15.3963 5.788 15.7719 5.6628 16.5231Z" stroke="currentColor" stroke-width="2" stroke-linecap="round" stroke-linejoin="round"/>
</svg>
