<svg xmlns="http://www.w3.org/2000/svg" width="24" height="24" fill="none" viewBox="0 0 24 24">
  <path stroke="currentColor" stroke-linecap="round" stroke-linejoin="round" stroke-width="2" d="M17.021 4.168v2.853m0 0v2.853m0-2.853h-2.853m2.853 0h2.853M5.25 10.249h3.5a1.5 1.5 0 0 0 1.5-1.5V5.25a1.5 1.5 0 0 0-1.5-1.5h-3.5a1.5 1.5 0 0 0-1.5 1.5v3.5a1.5 1.5 0 0 0 1.5 1.5Zm0 10.001h3.5a1.5 1.5 0 0 0 1.5-1.5v-3.5a1.5 1.5 0 0 0-1.5-1.5h-3.5a1.5 1.5 0 0 0-1.5 1.5v3.5a1.5 1.5 0 0 0 1.5 1.5Zm10 0h3.5a1.5 1.5 0 0 0 1.5-1.5v-3.5a1.5 1.5 0 0 0-1.5-1.5h-3.5a1.5 1.5 0 0 0-1.5 1.5v3.5a1.5 1.5 0 0 0 1.5 1.5Z"/>
</svg>
