<svg xmlns="http://www.w3.org/2000/svg" width="24" height="24" fill="none" viewBox="0 0 24 24">
  <path stroke="currentColor" stroke-linecap="round" stroke-linejoin="round" stroke-width="2" d="M19 18.54V4.6c0-.56 0-.84-.109-1.054a1 1 0 0 0-.437-.437C18.24 3 17.96 3 17.4 3H6.6c-.56 0-.84 0-1.054.109a1 1 0 0 0-.437.437C5 3.76 5 4.04 5 4.6v13.94c0 1.372 0 2.058.259 2.344a1 1 0 0 0 .887.318c.38-.056.817-.586 1.69-1.645L10.764 16c.423-.515.635-.772.89-.865a1 1 0 0 1 .69 0c.255.093.466.35.89.865l2.93 3.557c.872 1.06 1.308 1.589 1.69 1.645a1 1 0 0 0 .886-.318c.259-.286.259-.972.259-2.344Z"/>
</svg>
