<svg xmlns="http://www.w3.org/2000/svg" width="24" height="24" fill="none" viewBox="0 0 24 24">
  <path fill="#342E26" d="M9.25 12a1.25 1.25 0 1 1-2.5 0 1.25 1.25 0 0 1 2.5 0Zm8 0a1.25 1.25 0 1 1-2.5 0 1.25 1.25 0 0 1 2.5 0Zm-4 0a1.25 1.25 0 1 1-2.5 0 1.25 1.25 0 0 1 2.5 0Zm-4 4a1.25 1.25 0 1 1-2.5 0 1.25 1.25 0 0 1 2.5 0Zm4 0a1.25 1.25 0 1 1-2.5 0 1.25 1.25 0 0 1 2.5 0Z"/>
  <path stroke="currentColor" stroke-width="2" d="M4 8h16M7 19.985h10a3 3 0 0 0 3-3v-10a3 3 0 0 0-3-3H7a3 3 0 0 0-3 3v10a3 3 0 0 0 3 3Z"/>
</svg>
