<svg xmlns="http://www.w3.org/2000/svg" width="24" height="24" fill="none" viewBox="0 0 24 24">
  <path fill="#000" fill-rule="evenodd" d="M6.707 2.293a1 1 0 0 1 0 1.414L4.414 6l2.293 2.293a1 1 0 0 1-1.414 1.414l-3-3a1 1 0 0 1 0-1.414l3-3a1 1 0 0 1 1.414 0Zm3.586 0a1 1 0 0 1 1.414 0l3 3a1 1 0 0 1 0 1.414l-3 3a1 1 0 0 1-1.414-1.414L12.586 6l-2.293-2.293a1 1 0 0 1 0-1.414Z" clip-rule="evenodd"/>
  <path fill="#000" fill-rule="evenodd" d="M17 4a1 1 0 0 1 1-1h1a3 3 0 0 1 3 3v12a3 3 0 0 1-3 3H5a3 3 0 0 1-3-3v-6a1 1 0 1 1 2 0v6a1 1 0 0 0 1 1h14a1 1 0 0 0 1-1V6a1 1 0 0 0-1-1h-1a1 1 0 0 1-1-1Z" clip-rule="evenodd"/>
</svg>
