<svg xmlns="http://www.w3.org/2000/svg" width="24" height="24" fill="none" viewBox="0 0 24 24">
  <path fill="#000" d="M13 9a1 1 0 1 0-2 0h2Zm-2 6a1 1 0 1 0 2 0h-2Zm4-2a1 1 0 0 0 0-2v2Zm-6-2a1 1 0 0 0 0 2v-2Zm-3.362 8.673.454-.891-.454.891Zm-1.311-1.311-.891.454.891-.454Zm15.346 0-.891-.454.891.454Zm-1.311 1.311-.454-.891.454.891Zm1.311-14.035-.891.454.891-.454Zm-1.311-1.311.454-.891-.454.891ZM4.327 5.638l.891.454-.891-.454Zm1.311-1.311.454.891-.454-.891ZM12 9h-1v6h2V9h-1Zm3 3v-1H9v2h6v-1Zm5-3.2h-1v6.4h2V8.8h-1ZM15.2 20v-1H8.8v2h6.4v-1ZM4 15.2h1V8.8H3v6.4h1ZM8.8 4v1h6.4V3H8.8v1Zm0 16v-1c-.857 0-1.439 0-1.889-.038-.438-.035-.663-.1-.819-.18l-.454.891-.454.891c.485.247 1.002.346 1.564.392C7.298 21 7.976 21 8.8 21v-1ZM4 15.2H3c0 .824 0 1.501.044 2.052.046.562.145 1.079.392 1.564l.891-.454.891-.454c-.08-.156-.145-.38-.18-.819C5 16.639 5 16.057 5 15.2H4Zm1.638 4.473.454-.891a2 2 0 0 1-.874-.874l-.891.454-.891.454a4 4 0 0 0 1.748 1.748l.454-.891ZM20 15.2h-1c0 .857 0 1.439-.038 1.889-.035.438-.1.663-.18.819l.891.454.891.454c.247-.485.346-1.002.392-1.564.045-.55.044-1.228.044-2.052h-1ZM15.2 20v1c.824 0 1.501 0 2.052-.044.562-.046 1.079-.145 1.564-.392l-.454-.891-.454-.891c-.156.08-.38.145-.819.18-.45.037-1.032.038-1.889.038v1Zm4.473-1.638-.891-.454a2 2 0 0 1-.874.874l.454.891.454.891a4 4 0 0 0 1.748-1.748l-.891-.454ZM20 8.8h1c0-.824 0-1.501-.044-2.052-.046-.562-.145-1.079-.392-1.564l-.891.454-.891.454c.08.156.145.38.18.819C19 7.361 19 7.943 19 8.8h1ZM15.2 4v1c.857 0 1.439 0 1.889.038.438.035.663.1.819.18l.454-.891.454-.891c-.485-.247-1.002-.346-1.564-.392C16.702 3 16.024 3 15.2 3v1Zm4.473 1.638.891-.454a4 4 0 0 0-1.748-1.748l-.454.891-.454.891a2 2 0 0 1 .874.874l.891-.454ZM4 8.8h1c0-.857 0-1.439.038-1.889.035-.438.1-.663.18-.819l-.891-.454-.891-.454c-.247.485-.346 1.002-.392 1.564C3 7.298 3 7.976 3 8.8h1ZM8.8 4V3c-.824 0-1.501 0-2.052.044-.562.046-1.079.145-1.564.392l.454.891.454.891c.156-.08.38-.145.819-.18C7.361 5 7.943 5 8.8 5V4ZM4.327 5.638l.891.454a2 2 0 0 1 .874-.874l-.454-.891-.454-.891a4 4 0 0 0-1.748 1.748l.891.454Z"/>
</svg>
