<svg xmlns="http://www.w3.org/2000/svg" width="24" height="24" fill="none" viewBox="0 0 24 24">
  <path fill="#000" d="m5.569 18.443.998-.064-.998.064Zm12.862 0 .998.064-.998-.064ZM2.75 4.75a1 1 0 0 0 0 2v-2Zm18.5 2a1 1 0 1 0 0-2v2Zm-10.5 4a1 1 0 1 0-2 0h2Zm-2 5.5a1 1 0 1 0 2 0h-2Zm6.5-5.5a1 1 0 1 0-2 0h2Zm-2 5.5a1 1 0 1 0 2 0h-2ZM14.906 6a1 1 0 1 0 1.936-.5l-1.936.5ZM4.75 5.75l-.998.064.819 12.694.998-.065.998-.064-.82-12.693-.997.064Zm3.813 15.5v1h6.874v-2H8.563v1Zm9.868-2.807.998.064.819-12.693-.998-.064-.998-.064-.819 12.693.998.064ZM19.25 5.75v-1H4.75v2h14.5v-1Zm-16.5 0v1h2v-2h-2v1Zm16.5 0v1h2v-2h-2v1Zm-3.813 15.5v1a4 4 0 0 0 3.992-3.742l-.998-.065-.998-.064a2 2 0 0 1-1.996 1.871v1ZM5.57 18.443l-.998.064a4 4 0 0 0 3.992 3.743v-2a2 2 0 0 1-1.996-1.871l-.998.064Zm4.18-7.693h-1v5.5h2v-5.5h-1Zm4.5 0h-1v5.5h2v-5.5h-1Zm-2.25-8v1c1.396 0 2.572.955 2.906 2.25l.968-.25.968-.25A5.002 5.002 0 0 0 12 1.75v1Zm-3.874 3 .968.25A3.002 3.002 0 0 1 12 3.75v-2A5.002 5.002 0 0 0 7.158 5.5l.968.25Z"/>
</svg>
