<svg xmlns="http://www.w3.org/2000/svg" width="24" height="24" fill="none" viewBox="0 0 24 24">
  <path stroke="currentColor" stroke-linecap="round" stroke-linejoin="round" stroke-width="2" d="M11 4H8.8c-1.68 0-2.52 0-3.162.327a3 3 0 0 0-1.311 1.311C4 6.28 4 7.12 4 8.8v6.4c0 1.68 0 2.52.327 3.162a3 3 0 0 0 1.311 1.311C6.28 20 7.12 20 8.8 20h6.4c1.68 0 2.52 0 3.162-.327a3 3 0 0 0 1.311-1.311C20 17.72 20 16.88 20 15.2V13"/>
  <path stroke="currentColor" stroke-linecap="square" stroke-linejoin="round" stroke-width="2" d="M9 15v-2.586a1 1 0 0 1 .293-.707L17.25 3.75a2.121 2.121 0 0 1 3 3l-7.957 7.957a1 1 0 0 1-.707.293H9Z"/>
</svg>
