<svg xmlns="http://www.w3.org/2000/svg" width="24" height="24" fill="none" viewBox="0 0 24 24">
  <path stroke="currentColor" stroke-linecap="round" stroke-linejoin="round" stroke-width="2" d="M12 13.75v-2m-.002 8.786 2.74-2.27a1 1 0 0 1 .638-.23h1.626a3 3 0 0 0 3-3V7a3 3 0 0 0-3-3h-10a3 3 0 0 0-3 3v8.036a3 3 0 0 0 3 3h1.65a1 1 0 0 1 .642.233l2.704 2.267Z"/>
  <path stroke="currentColor" stroke-linecap="round" stroke-width="2" d="M12 8.75h.01m.24 0a.25.25 0 1 1-.5 0 .25.25 0 0 1 .5 0Z"/>
</svg>
