<svg xmlns="http://www.w3.org/2000/svg" width="24" height="24" fill="currentColor" viewBox="0 0 24 24">
  <path fill-rule="evenodd" d="M12 2c5.633 0 10 4.127 10 9.7 0 5.574-4.367 9.7-10 9.7-1.012 0-1.982-.134-2.895-.384a.798.798 0 0 0-.534.039l-1.985.876a.8.8 0 0 1-1.122-.707l-.055-1.779a.8.8 0 0 0-.268-.57C3.195 17.135 2 14.615 2 11.7 2 6.127 6.367 2 12 2Zm6.005 7.463c.282-.447-.268-.952-.69-.632l-3.155 2.395a.6.6 0 0 1-.723.001l-2.335-1.751a1.5 1.5 0 0 0-2.17.4l-2.937 4.66c-.282.447.267.951.689.632l3.155-2.395a.6.6 0 0 1 .723-.002l2.336 1.752a1.5 1.5 0 0 0 2.17-.4l2.937-4.66Z" clip-rule="evenodd"/>
</svg>
