<svg width="24" height="24" viewBox="0 0 24 24" fill="currentColor" xmlns="http://www.w3.org/2000/svg">
<path d="M10.241 2.98455C11.2225 2.0351 12.7801 2.0351 13.7615 2.98455C14.3227 3.5275 15.1031 3.78106 15.8764 3.67169C17.2284 3.48044 18.4885 4.39597 18.7244 5.74099C18.8593 6.51012 19.3417 7.17395 20.0315 7.53994C21.2377 8.17996 21.7191 9.66132 21.1194 10.8881C20.7764 11.5897 20.7764 12.4102 21.1194 13.1118C21.7191 14.3386 21.2377 15.8199 20.0315 16.46C19.3417 16.8259 18.8593 17.4898 18.7244 18.2589C18.4885 19.6039 17.2284 20.5194 15.8764 20.3282C15.1031 20.2189 14.3227 20.4724 13.7615 21.0153C12.7801 21.9648 11.2225 21.9648 10.241 21.0153C9.67979 20.4724 8.8994 20.2189 8.12622 20.3282C6.77413 20.5194 5.51402 19.6039 5.27809 18.2589C5.14317 17.4898 4.66087 16.8259 3.97106 16.46C2.7648 15.8199 2.28347 14.3386 2.88318 13.1118C3.22611 12.4102 3.22611 11.5897 2.88318 10.8881C2.28347 9.66132 2.7648 8.17996 3.97106 7.53994C4.66087 7.17395 5.14317 6.51012 5.27809 5.74099C5.51402 4.39597 6.77413 3.48044 8.12622 3.67169C8.8994 3.78106 9.67979 3.5275 10.241 2.98455Z" stroke="currentColor" fill="none" stroke-width="2" stroke-linejoin="round"/>
<path d="M7.02713 11.5886C7.17593 11.5194 7.34649 11.512 7.50076 11.5681C7.65511 11.6243 7.7809 11.7396 7.85037 11.8884C7.91983 12.0373 7.92697 12.2077 7.87088 12.3621C7.81471 12.5165 7.69948 12.6422 7.55057 12.7117L6.98904 12.9734L7.25369 13.5349L7.81424 13.2732H7.81228C7.96066 13.2067 8.12963 13.2009 8.28201 13.2576C8.43418 13.3143 8.55793 13.4289 8.62674 13.5759C8.69554 13.7233 8.70358 13.8924 8.6492 14.0457C8.5948 14.1989 8.48197 14.3243 8.33572 14.3953L7.7742 14.658L8.29861 15.781C8.33531 15.8607 8.35451 15.9472 8.35525 16.0349C8.35594 16.1229 8.33809 16.2104 8.30252 16.2908C8.26696 16.3711 8.21462 16.4432 8.1492 16.5017C8.08358 16.5604 8.00561 16.6042 7.92166 16.6306C7.77877 16.6732 7.62563 16.664 7.48904 16.6043C7.35252 16.5444 7.2412 16.4383 7.17557 16.3045L5.60428 12.9363C5.53486 12.7875 5.52768 12.617 5.58377 12.4627C5.63989 12.3083 5.75529 12.1825 5.90408 12.1131L7.02713 11.5886Z"/>
<path fill-rule="evenodd" clip-rule="evenodd" d="M9.55643 10.4148C9.86884 10.2689 10.2214 10.2318 10.5574 10.3093C10.8931 10.387 11.1933 10.5746 11.4099 10.8426C11.6267 11.1108 11.7473 11.4441 11.7527 11.7888C11.7581 12.1337 11.6486 12.471 11.4402 12.7459L12.5515 13.4187C12.6644 13.4908 12.7508 13.5974 12.7986 13.7224C12.8464 13.8476 12.8533 13.985 12.8172 14.114C12.781 14.243 12.7042 14.3571 12.5984 14.4392C12.4927 14.5213 12.3631 14.567 12.2293 14.5701C12.1161 14.5701 12.0045 14.5393 11.908 14.4802L10.7937 13.7986L11.1072 14.4744C11.143 14.5532 11.1618 14.6388 11.1629 14.7254C11.1639 14.8119 11.147 14.8977 11.1131 14.9773C11.0791 15.057 11.0288 15.129 10.9656 15.1883C10.9024 15.2474 10.8275 15.2933 10.7459 15.322C10.6013 15.3689 10.4444 15.3619 10.3045 15.3025C10.1645 15.2431 10.0509 15.1344 9.98416 14.9978L8.41287 11.6306C8.37841 11.5569 8.35884 11.4766 8.35525 11.3953C8.35171 11.314 8.36455 11.2325 8.39236 11.156C8.42021 11.0796 8.46339 11.0099 8.51834 10.95C8.5733 10.89 8.63896 10.8408 8.71268 10.8064L9.55643 10.4148ZM10.1971 11.5056C10.1566 11.5072 10.1165 11.5169 10.0799 11.534L9.79861 11.6648L10.0594 12.2263L10.3406 12.0955C10.3956 12.0695 10.442 12.0274 10.4734 11.9754C10.5049 11.9232 10.52 11.8624 10.5174 11.8015C10.5147 11.7407 10.4946 11.6818 10.4588 11.6326C10.4228 11.5833 10.3724 11.5453 10.3152 11.5242C10.2775 11.5102 10.2373 11.5041 10.1971 11.5056Z"/>
<path d="M13.2039 8.70876C13.3518 8.64439 13.5188 8.64001 13.6697 8.69704C13.8208 8.75423 13.9442 8.86803 14.0125 9.01443C14.0807 9.16065 14.089 9.32791 14.0359 9.48025C13.9827 9.63262 13.8718 9.75881 13.7273 9.83083L13.1658 10.0926L13.4275 10.6541L13.9881 10.3924C14.1372 10.3227 14.308 10.3147 14.4627 10.3709C14.6174 10.4271 14.7436 10.543 14.8133 10.6922C14.8828 10.8413 14.8909 11.0121 14.8347 11.1668C14.7785 11.3214 14.6625 11.4468 14.5135 11.5164L13.9519 11.7781L14.2137 12.3396L14.7752 12.0779C14.9243 12.0085 15.0953 12.0011 15.2498 12.0574C15.4043 12.1138 15.53 12.2296 15.5994 12.3787C15.6688 12.5278 15.6763 12.6987 15.6199 12.8533C15.5635 13.0077 15.4477 13.1335 15.2986 13.2029L14.1756 13.7263C14.0269 13.7956 13.8571 13.8028 13.7029 13.7468C13.5486 13.6908 13.4218 13.5762 13.3523 13.4275L11.781 10.0545C11.7116 9.90564 11.7044 9.73519 11.7605 9.58083C11.8166 9.42646 11.932 9.30073 12.0808 9.23122L13.2039 8.70876Z"/>
<path d="M16.0105 7.40114C16.1594 7.33171 16.3298 7.32351 16.4842 7.37966C16.6385 7.43583 16.7643 7.55115 16.8338 7.69997C16.9032 7.84882 16.9104 8.01923 16.8543 8.17361C16.7981 8.32804 16.6829 8.45373 16.534 8.52321L15.9724 8.78493L16.2342 9.34646L16.7957 9.08474C16.8693 9.05042 16.9489 9.03073 17.0301 9.02712C17.1113 9.02355 17.1928 9.03642 17.2693 9.06423C17.3458 9.09204 17.4164 9.13428 17.4763 9.18923C17.5363 9.24417 17.5845 9.31083 17.6189 9.38454C17.6533 9.45818 17.6729 9.53775 17.6765 9.61892C17.6801 9.70021 17.6672 9.78171 17.6394 9.85818C17.6116 9.93457 17.5693 10.0053 17.5144 10.0652C17.4595 10.1251 17.3928 10.1734 17.3191 10.2078L16.7576 10.4695L17.0193 11.031L17.5808 10.7693C17.7292 10.7028 17.8981 10.697 18.0506 10.7537C18.2028 10.8104 18.3265 10.9248 18.3953 11.072C18.4641 11.2194 18.4721 11.3885 18.4178 11.5418C18.3633 11.6947 18.2513 11.8204 18.1053 11.8914L16.9822 12.4158C16.8334 12.4852 16.6629 12.4924 16.5086 12.4363C16.3542 12.3802 16.2285 12.2648 16.159 12.116L14.5877 8.74685C14.5185 8.59825 14.5113 8.4283 14.5672 8.27419C14.6233 8.11982 14.7387 7.99311 14.8875 7.92361L16.0105 7.40114Z"/>
</svg>
