<svg xmlns="http://www.w3.org/2000/svg" width="24" height="24" fill="none" viewBox="0 0 24 24">
  <path stroke="currentColor" stroke-linejoin="round" stroke-width="2" d="M12 8V6.333M12 8h-1.667A3.333 3.333 0 0 1 7 4.667C7 3.747 7.746 3 8.667 3A3.333 3.333 0 0 1 12 6.333M12 8h1.667A3.333 3.333 0 0 0 17 4.667C17 3.747 16.254 3 15.333 3A3.333 3.333 0 0 0 12 6.333M12 8v12m7-8.268V17a3 3 0 0 1-3 3H8a3 3 0 0 1-3-3v-5.268m14 0V11.5m0 .232A2 2 0 0 0 18 8H6a2 2 0 0 0-1 3.732m14 0A1.99 1.99 0 0 1 18 12H6a1.99 1.99 0 0 1-1-.268m0 0V11.5"/>
</svg>
