<svg xmlns="http://www.w3.org/2000/svg" width="24" height="24" fill="currentColor" viewBox="0 0 24 24">
  <path d="M12.492 1.791a2 2 0 0 0-.984 0c-.374.095-.695.327-.95.512l-.071.05-8.569 6.135a1 1 0 0 0 1.164 1.626L4 9.457v5.784c0 .805 0 1.47.044 2.01.046.563.145 1.08.392 1.565a4 4 0 0 0 1.748 1.748c.485.247 1.002.346 1.564.392C8.29 21 8.954 21 9.758 21h4.483c.805 0 1.47 0 2.01-.044.563-.046 1.08-.145 1.565-.392a4 4 0 0 0 1.748-1.748c.247-.485.346-1.002.392-1.564.044-.541.044-1.206.044-2.01V9.456l.918.657a1 1 0 1 0 1.164-1.626l-8.568-6.134-.071-.051c-.256-.185-.577-.417-.95-.512Z"/>
</svg>
