<svg xmlns="http://www.w3.org/2000/svg" width="60" height="60" fill="none" viewBox="0 0 60 60">
  <g filter="url(#a)">
    <path fill="#000" fill-rule="evenodd" d="M25.662 18.113C26.779 18 28.179 18 29.946 18h.108c1.767 0 3.167 0 4.284.113 1.145.117 2.102.36 2.938.92a6.192 6.192 0 0 1 1.692 1.69c.557.837.802 1.793.918 2.939.114 1.117.114 2.517.114 4.284v.108c0 1.767 0 3.167-.114 4.284-.116 1.145-.36 2.102-.92 2.938a6.192 6.192 0 0 1-1.69 1.692c-.836.557-1.792.802-2.938.918-1.117.114-2.517.114-4.284.114h-.108c-1.767 0-3.167 0-4.284-.114-1.145-.116-2.102-.36-2.938-.92a6.094 6.094 0 0 1-1.69-1.69c-.56-.836-.804-1.792-.92-2.938C20 31.221 20 29.821 20 28.054v-.108c0-1.767 0-3.167.113-4.284.117-1.145.36-2.102.92-2.938a6.195 6.195 0 0 1 1.69-1.69c.837-.56 1.793-.804 2.939-.92Zm-1.098 6.723a2.27 2.27 0 0 1 2.268-2.268 2.27 2.27 0 0 1 0 4.536 2.271 2.271 0 0 1-2.268-2.268Zm8.451 4.193c.202-.272.953-1.125 1.926-.518.617.38 1.136.895 1.691 1.445l.007.006c.212.213.363.454.465.712.304.778.145 1.715-.179 2.486a3.358 3.358 0 0 1-2.051 1.917 4.104 4.104 0 0 1-1.276.193h-7.647c-.76 0-1.434-.181-1.986-.522-.346-.214-.407-.707-.15-1.026.427-.533.853-1.07 1.278-1.61.814-1.032 1.362-1.333 1.973-1.07.246.109.495.272.75.445.68.462 1.627 1.097 2.872.408.853-.478 1.348-1.296 1.779-2.01l.008-.013.09-.15c.14-.237.29-.469.45-.693Z" clip-rule="evenodd"/>
  </g>
  <defs>
    <filter id="a" width="60" height="60" x="0" y="0" color-interpolation-filters="sRGB" filterUnits="userSpaceOnUse">
      <feFlood flood-opacity="0" result="BackgroundImageFix"/>
      <feColorMatrix in="SourceAlpha" result="hardAlpha" values="0 0 0 0 0 0 0 0 0 0 0 0 0 0 0 0 0 0 127 0"/>
      <feOffset dy="2"/>
      <feGaussianBlur stdDeviation="10"/>
      <feComposite in2="hardAlpha" operator="out"/>
      <feColorMatrix values="0 0 0 0 0 0 0 0 0 0 0 0 0 0 0 0 0 0 0.04 0"/>
      <feBlend in2="BackgroundImageFix" result="effect1_dropShadow_3888_30923"/>
      <feBlend in="SourceGraphic" in2="effect1_dropShadow_3888_30923" result="shape"/>
    </filter>
  </defs>
</svg>
