<svg xmlns="http://www.w3.org/2000/svg" width="24" height="24" fill="currentColor" viewBox="0 0 24 24">
  <path d="M13.108 3.692h-2.216a.972.972 0 0 0-.969.97v14.677c0 .54.43.969.97.969h2.215a.981.981 0 0 0 .969-.97V4.662c0-.54-.443-.97-.97-.97Zm6.923 0h-2.216a.972.972 0 0 0-.969.97v14.677c0 .54.43.969.97.969h2.215a.981.981 0 0 0 .969-.97V4.662c0-.54-.443-.97-.97-.97Zm-13.846 0H3.969a.972.972 0 0 0-.969.97v14.677c0 .54.43.969.97.969h2.215a.981.981 0 0 0 .969-.97V4.662c0-.54-.443-.97-.97-.97Z"/>
</svg>
