<svg xmlns="http://www.w3.org/2000/svg" width="24" height="24" fill="none" viewBox="0 0 24 24">
  <path stroke="currentColor" stroke-width="2" d="M4 5.5A1.5 1.5 0 0 1 5.5 4h3A1.5 1.5 0 0 1 10 5.5v3A1.5 1.5 0 0 1 8.5 10h-3A1.5 1.5 0 0 1 4 8.5v-3Zm10 0A1.5 1.5 0 0 1 15.5 4h3A1.5 1.5 0 0 1 20 5.5v3a1.5 1.5 0 0 1-1.5 1.5h-3A1.5 1.5 0 0 1 14 8.5v-3Zm0 10a1.5 1.5 0 0 1 1.5-1.5h3a1.5 1.5 0 0 1 1.5 1.5v3a1.5 1.5 0 0 1-1.5 1.5h-3a1.5 1.5 0 0 1-1.5-1.5v-3Zm-10 0A1.5 1.5 0 0 1 5.5 14h3a1.5 1.5 0 0 1 1.5 1.5v3A1.5 1.5 0 0 1 8.5 20h-3A1.5 1.5 0 0 1 4 18.5v-3Z"/>
</svg>
