<svg xmlns="http://www.w3.org/2000/svg" width="24" height="24" fill="currentColor" viewBox="0 0 24 24">
  <path d="M20.308 13.356V11.14a.972.972 0 0 0-.97-.969H4.662c-.54 0-.97.43-.97.97v2.215c0 .526.443.969.97.969h14.677c.54 0 .969-.443.969-.97Zm0 6.923v-2.216a.972.972 0 0 0-.97-.969H4.662c-.54 0-.97.43-.97.97v2.215c0 .526.443.969.97.969h14.677c.54 0 .969-.443.969-.97Zm0-13.846V4.217a.972.972 0 0 0-.97-.969H4.662c-.54 0-.97.43-.97.97v2.215c0 .526.443.969.97.969h14.677c.54 0 .969-.443.969-.97Z"/>
</svg>
