<svg xmlns="http://www.w3.org/2000/svg" width="24" height="24" fill="currentColor" viewBox="0 0 24 24">
  <path d="M19.5 13.25c1.379 0 2.5 1.121 2.5 2.5v2.5c0 1.379-1.121 2.5-2.5 2.5h-15a2.502 2.502 0 0 1-2.5-2.5v-2.5c0-1.379 1.121-2.5 2.5-2.5h15Zm.625-5v-2.5a.627.627 0 0 0-.625-.625h-15a.627.627 0 0 0-.625.625v2.5c0 .344.281.625.625.625h15a.627.627 0 0 0 .625-.625ZM22 5.75v2.5c0 1.379-1.121 2.5-2.5 2.5h-15A2.502 2.502 0 0 1 2 8.25v-2.5c0-1.379 1.121-2.5 2.5-2.5h15c1.379 0 2.5 1.121 2.5 2.5Z"/>
</svg>
