<svg xmlns="http://www.w3.org/2000/svg" width="24" height="24" fill="currentColor" viewBox="0 0 24 24">
  <path d="M4.267 2C2.9 2 1.999 2.933 1.999 4.167c0 1.2.867 2.166 2.2 2.166 1.434 0 2.334-.966 2.3-2.166C6.5 2.933 5.635 2 4.268 2Zm12.8 5.734c-2.3 0-3.7 1.333-4.267 2.266h-.066l-.2-1.966h-3.7c.033 1.266.1 2.733.1 4.466V22H13.2v-8.034c0-.4.033-.8.133-1.1.333-.8 1.034-1.633 2.2-1.633 1.567 0 2.167 1.234 2.167 3.034V22H22v-8.233c0-4.133-2.133-6.033-4.933-6.033Zm-14.967.3V22h4.266V8.034H2.1Z"/>
</svg>
