<svg xmlns="http://www.w3.org/2000/svg" width="24" height="24" fill="currentColor" viewBox="0 0 24 24">
  <path fill-rule="evenodd" d="M2.833 3.5a.99.99 0 0 0-.707.299 1.03 1.03 0 0 0 0 1.442.99.99 0 0 0 .707.299h16a.99.99 0 0 0 .707-.299 1.03 1.03 0 0 0 0-1.442.99.99 0 0 0-.707-.299h-16Zm8 7.48a.99.99 0 0 0-.707.299 1.03 1.03 0 0 0 0 1.442.99.99 0 0 0 .707.299H21.5a.99.99 0 0 0 .707-.299 1.03 1.03 0 0 0 0-1.442.99.99 0 0 0-.707-.299H10.833Zm-9 8.5c0-.27.106-.53.293-.721a.99.99 0 0 1 .707-.299h16a.99.99 0 0 1 .707.299 1.03 1.03 0 0 1 0 1.442.99.99 0 0 1-.707.299h-16a.99.99 0 0 1-.707-.299 1.03 1.03 0 0 1-.293-.721Zm4.147-8.13L3.633 9.555a1.318 1.318 0 0 0-1.396-.129 1.343 1.343 0 0 0-.538.502c-.13.215-.199.462-.199.715v2.72c0 .252.069.5.2.715.13.215.316.388.537.501a1.31 1.31 0 0 0 1.396-.128l2.347-1.796a.812.812 0 0 0 .32-.652.83.83 0 0 0-.32-.653Z" clip-rule="evenodd"/>
</svg>
