<svg xmlns="http://www.w3.org/2000/svg" width="24" height="24" fill="none" viewBox="0 0 24 24">
  <path fill="#000" d="M15.779 7.029a1 1 0 0 1 1.196 1.198l-.043.14-2.243 5.763c-.102.262-.31.468-.57.57l-5.756 2.236a1 1 0 0 1-1.294-1.294L9.312 9.88l.043-.096c.111-.216.299-.385.527-.474l5.756-2.236.14-.044Zm-4.527 3.892 1.828 1.827 1.164-2.989-2.992 1.162Z"/>
  <path stroke="currentColor" stroke-linecap="round" stroke-linejoin="round" stroke-width="2" d="M12 21.5a9.5 9.5 0 1 0 0-19 9.5 9.5 0 0 0 0 19Z"/>
</svg>
