<svg xmlns="http://www.w3.org/2000/svg" width="24" height="24" fill="none" viewBox="0 0 24 24">
  <path stroke="currentColor" stroke-linecap="round" stroke-linejoin="round" stroke-width="2" d="M14 10a3 3 0 1 0 0-6 3 3 0 0 0 0 6Z"/>
  <path stroke="currentColor" stroke-linecap="round" stroke-linejoin="round" stroke-width="2" d="M12.83 4A3.001 3.001 0 1 0 11 7.83M4 20h1s3.597 1.24 6 1c2.566-.256 6.728-2.625 8.336-3.592a1.38 1.38 0 0 0 .664-1.19c0-.956-.921-1.642-1.837-1.367L11 17.001M4 14.5l3.916-1.305a3 3 0 0 1 1.198-.144l3.857.322a1.38 1.38 0 0 1 1.24 1.634 1.838 1.838 0 0 1-1.277 1.413L11 17"/>
</svg>
