<svg xmlns="http://www.w3.org/2000/svg" width="24" height="24" fill="currentColor" viewBox="0 0 24 24">
  <path d="M11.265 10.24a1.5 1.5 0 1 1 .417 2.974 1.5 1.5 0 0 1-.417-2.973Z"/>
  <path fill-rule="evenodd" d="M12.466 6.704c.551-.022 1.047.013 1.524.186l.277.114c.635.29 1.18.75 1.572 1.331l.1.16c.222.38.352.801.45 1.274.11.53.19 1.194.29 2.014l.415 3.375.133 1.117c.035.336.061.637.072.908.02.482-.005.922-.127 1.344l-.06.18a3.8 3.8 0 0 1-1.203 1.672l-.241.177c-.42.283-.893.438-1.433.55-.266.054-.565.102-.9.148l-1.115.142-3.375.415c-.82.1-1.483.183-2.025.205-.482.02-.922-.005-1.344-.128l-.18-.058a3.802 3.802 0 0 1-1.671-1.204l-.177-.241c-.284-.421-.438-.894-.55-1.434a14.144 14.144 0 0 1-.149-.898l-.142-1.116-.414-3.375c-.101-.82-.183-1.484-.206-2.025-.022-.55.013-1.047.187-1.524l.113-.277A3.8 3.8 0 0 1 3.62 8.164l.16-.1c.38-.221.8-.352 1.273-.45.53-.109 1.194-.19 2.014-.29l3.375-.415 1.117-.132c.336-.036.638-.062.908-.073Zm-4.358 8.967a2.204 2.204 0 0 0-1.312.112c-.191.078-.402.218-.713.516-.318.305-.693.726-1.234 1.333l-.47.527c.026.173.053.328.082.47.092.443.19.686.31.863l.103.14c.252.316.587.558.969.698l.163.048c.178.04.41.057.749.043.46-.019 1.05-.09 1.896-.195l3.375-.413 1.09-.14c.105-.014.204-.03.297-.044l-3.075-2.461c-.635-.508-1.076-.86-1.441-1.107a2.893 2.893 0 0 0-.63-.344l-.159-.046ZM12.532 8.3c-.23.01-.494.032-.804.066l-1.092.129-3.375.413c-.847.104-1.435.178-1.887.27-.332.07-.552.143-.716.225l-.146.085a2.205 2.205 0 0 0-.773.912l-.065.16c-.073.2-.11.461-.092.912.02.462.091 1.05.195 1.896l.33 2.7.266-.295c.219-.238.419-.446.606-.626.382-.366.76-.656 1.213-.841l.272-.1a3.8 3.8 0 0 1 1.991-.091l.177.044c.406.118.776.322 1.159.582.43.29.928.69 1.543 1.182l3.782 3.025a2.2 2.2 0 0 0 .497-.787l.048-.163c.04-.178.057-.41.043-.748-.01-.231-.032-.494-.065-.804l-.13-1.092-.413-3.375c-.104-.847-.177-1.435-.27-1.887-.07-.332-.142-.553-.224-.716l-.086-.147a2.202 2.202 0 0 0-.912-.772l-.16-.066c-.2-.072-.46-.11-.912-.091Z" clip-rule="evenodd"/>
  <path d="M11.674 1.908c.542.022 1.205.104 2.025.205l3.375.415 1.116.141c.334.047.633.094.898.15.54.11 1.013.265 1.434.549l.241.177a3.8 3.8 0 0 1 1.204 1.672l.058.18c.123.421.148.861.128 1.343-.011.271-.038.573-.074.909l-.131 1.116-.415 3.375c-.1.82-.181 1.484-.29 2.015-.098.472-.228.893-.45 1.273l-.1.16a3.805 3.805 0 0 1-.622.711l-.13.095a.799.799 0 0 1-.932-1.286l.193-.195c.06-.069.116-.142.168-.218l.085-.146c.083-.164.155-.384.224-.716.094-.453.167-1.04.27-1.887l.414-3.375.13-1.092c.033-.31.056-.573.065-.804.014-.339-.003-.57-.043-.749l-.048-.163a2.203 2.203 0 0 0-.698-.969l-.14-.103c-.177-.12-.42-.218-.863-.31a12.466 12.466 0 0 0-.795-.13l-1.091-.14-3.375-.414c-.847-.104-1.435-.176-1.897-.194-.338-.014-.57.003-.748.043l-.163.048c-.383.14-.719.38-.97.697l-.103.14c-.08.12-.153.272-.219.495l-.06.15a.799.799 0 0 1-1.47-.603l.082-.249c.089-.243.2-.47.344-.685l.177-.242a3.799 3.799 0 0 1 1.673-1.203l.179-.059c.422-.122.862-.147 1.344-.127Z"/>
</svg>
