<svg xmlns="http://www.w3.org/2000/svg" width="24" height="24" fill="currentColor" viewBox="0 0 24 24">
  <path fill="#000" d="m20.924 13.175-2.55-.332a6.52 6.52 0 0 0 0-1.686l2.55-.332a9.064 9.064 0 0 1 0 2.35Zm-.607-4.62a8.994 8.994 0 0 0-1.176-2.034L17.1 8.088c.341.443.625.93.84 1.452l2.376-.985Zm-2.838-3.696L15.912 6.9a6.42 6.42 0 0 0-1.452-.84l.985-2.376c.732.303 1.415.7 2.034 1.176Zm-4.303-1.783-.333 2.55a6.513 6.513 0 0 0-1.686 0l-.332-2.55a9.085 9.085 0 0 1 2.35 0Zm-4.621.607.985 2.375c-.521.216-1.009.5-1.452.84L6.52 4.86a8.99 8.99 0 0 1 2.034-1.176ZM4.859 6.52 6.9 8.088c-.341.443-.625.93-.84 1.452l-2.376-.985A8.99 8.99 0 0 1 4.859 6.52Zm-1.783 4.304a9.085 9.085 0 0 0 0 2.35l2.55-.332a6.513 6.513 0 0 1 0-1.686l-2.55-.332Zm.607 4.62 2.375-.985c.216.521.5 1.009.84 1.452L4.86 17.48a8.992 8.992 0 0 1-1.176-2.034Zm2.838 3.696 1.567-2.04c.443.341.93.625 1.452.84l-.985 2.376a8.994 8.994 0 0 1-2.034-1.176Zm4.304 1.783.332-2.55a6.52 6.52 0 0 0 1.686 0l.332 2.55a9.064 9.064 0 0 1-2.35 0Zm4.62-.607-.985-2.375a6.42 6.42 0 0 0 1.452-.84l1.567 2.039a8.996 8.996 0 0 1-2.034 1.176Zm3.696-2.838-2.04-1.567c.341-.443.625-.93.84-1.452l2.376.985a8.988 8.988 0 0 1-1.176 2.034Z"/>
</svg>
