<svg xmlns="http://www.w3.org/2000/svg" width="24" height="24" fill="none" viewBox="0 0 24 24">
  <path fill="#000" d="m13.336 3.336.707-.707-.707.707Zm5.328 5.328.707-.707-.707.707ZM3.75 10.75a1 1 0 1 0 2 0h-2Zm9.5 9.5a1 1 0 1 0 0 2v-2Zm-5.5-17.5v1h4.172v-2H7.75v1Zm11.5 7.328h-1v8.172h2v-8.172h-1Zm-5.914-6.742-.707.707 5.328 5.328.707-.707.707-.707-5.328-5.328-.707.707ZM4.75 10.75h1v-5h-2v5h1Zm11.5 10.5v-1h-3v2h3v-1Zm3-11.172h1a3 3 0 0 0-.879-2.12l-.707.706-.707.707a1 1 0 0 1 .293.707h1ZM11.922 2.75v1a1 1 0 0 1 .707.293l.707-.707.707-.707a3 3 0 0 0-2.121-.879v1Zm7.328 15.5h-1a2 2 0 0 1-2 2v2a4 4 0 0 0 4-4h-1ZM7.75 2.75v-1a4 4 0 0 0-4 4h2a2 2 0 0 1 2-2v-1Zm5 .5h-1v4h2v-4h-1Zm2 6v1h4v-2h-4v1Zm-2-2h-1a3 3 0 0 0 3 3v-2a1 1 0 0 1-1-1h-1Z"/>
  <path stroke="currentColor" stroke-linejoin="round" stroke-width="2" d="m11.075 16.855-3.39-3.22a.449.449 0 0 0-.758.326v1.423a.229.229 0 0 1-.226.227c-3.63.057-4.6 1.534-4.6 5.274.66-1.32.996-2.1 4.6-2.132.123 0 .226.1.226.224V20.4a.45.45 0 0 0 .759.325l3.389-3.22a.449.449 0 0 0 0-.651Z"/>
</svg>
