<svg xmlns="http://www.w3.org/2000/svg" width="24" height="24" fill="currentColor" viewBox="0 0 24 24">
  <path fill-rule="evenodd" d="M2.888 5.807A4 4 0 0 1 6.705 3h10.59a4 4 0 0 1 3.817 2.807l.667 2.132a3.88 3.88 0 0 1-.78 3.72V17a4 4 0 0 1-4 4H7a4 4 0 0 1-4-4v-5.34a3.88 3.88 0 0 1-.778-3.72l.667-2.133ZM14.073 8.65 13.617 5h-3.234l-.457 3.651a2.09 2.09 0 1 0 4.147 0ZM8.367 5H6.705a2 2 0 0 0-1.908 1.403L4.13 8.536a1.898 1.898 0 1 0 3.695.801L8.367 5Zm7.266 0 .425 3.403.117.934a1.898 1.898 0 1 0 3.695-.801l-.667-2.133A2 2 0 0 0 17.294 5h-1.661Z" clip-rule="evenodd"/>
</svg>
