<svg xmlns="http://www.w3.org/2000/svg" width="24" height="24" fill="none" viewBox="0 0 24 24">
  <path fill="#000" d="m5.388 19.923.454-.891-.454.891Zm-1.311-1.311-.891.454.891-.454Zm15.846 0-.891-.454.891.454Zm-1.311 1.311-.454-.891.454.891Zm1.311-14.535-.891.454.891-.454Zm-1.311-1.311.454-.891-.454.891ZM4.077 5.388l.891.454-.891-.454Zm1.311-1.311.454.891-.454-.891Zm5.362-.327v-1h-2v1h2Zm-2 16.5v1h2v-1h-2Zm-5-11.5h-1v2h1v-2Zm16.5 2h1v-2h-1v2Zm0-2.2h-1v6.9h2v-6.9h-1Zm-4.8 11.7v-1h-6.9v2h6.9v-1Zm-11.7-4.8h1v-6.9h-2v6.9h1Zm4.8-11.7v1h6.9v-2h-6.9v1Zm0 16.5v-1c-.857 0-1.439 0-1.889-.038-.438-.035-.663-.1-.819-.18l-.454.891-.454.891c.485.247 1.002.346 1.564.392.55.045 1.228.044 2.052.044v-1Zm-4.8-4.8h-1c0 .824 0 1.501.044 2.052.046.562.145 1.079.392 1.564l.891-.454.891-.454c-.08-.156-.145-.38-.18-.819-.037-.45-.038-1.032-.038-1.889h-1Zm1.638 4.473.454-.891a2 2 0 0 1-.874-.874l-.891.454-.891.454a4 4 0 0 0 1.748 1.748l.454-.891ZM20.25 15.45h-1c0 .857 0 1.439-.038 1.889-.035.438-.1.663-.18.819l.891.454.891.454c.247-.485.346-1.002.392-1.564.045-.55.044-1.228.044-2.052h-1Zm-4.8 4.8v1c.824 0 1.501 0 2.052-.044.562-.046 1.079-.145 1.564-.392l-.454-.891-.454-.891c-.156.08-.38.145-.819.18-.45.037-1.032.038-1.889.038v1Zm4.473-1.638-.891-.454a2 2 0 0 1-.874.874l.454.891.454.891a4 4 0 0 0 1.748-1.748l-.891-.454ZM20.25 8.55h1c0-.824 0-1.501-.044-2.052-.046-.562-.145-1.079-.392-1.564l-.891.454-.891.454c.08.156.145.38.18.819.037.45.038 1.032.038 1.889h1Zm-4.8-4.8v1c.857 0 1.439 0 1.889.038.438.035.663.1.819.18l.454-.891.454-.891c-.485-.247-1.002-.346-1.564-.392-.55-.045-1.228-.044-2.052-.044v1Zm4.473 1.638.891-.454a4 4 0 0 0-1.748-1.748l-.454.891-.454.891a2 2 0 0 1 .874.874l.891-.454ZM3.75 8.55h1c0-.857 0-1.439.038-1.889.035-.438.1-.663.18-.819l-.891-.454-.891-.454c-.247.485-.346 1.002-.392 1.564-.045.55-.044 1.228-.044 2.052h1Zm4.8-4.8v-1c-.824 0-1.501 0-2.052.044-.562.046-1.079.145-1.564.392l.454.891.454.891c.156-.08.38-.145.819-.18.45-.037 1.032-.038 1.889-.038v-1ZM4.077 5.388l.891.454a2 2 0 0 1 .874-.874l-.454-.891-.454-.891a4 4 0 0 0-1.748 1.748l.891.454ZM9.75 3.75h-1v6h2v-6h-1Zm0 6h-1v10.5h2V9.75h-1Zm-6 0v1h6v-2h-6v1Zm6 0v1h10.5v-2H9.75v1Z"/>
</svg>
