<svg width="24" height="24" viewBox="0 0 24 24" fill="none" xmlns="http://www.w3.org/2000/svg">
<path fill-rule="evenodd" clip-rule="evenodd" d="M10.6144 2.63164C11.3462 1.78946 12.6538 1.78945 13.3856 2.63163L14.7552 4.20801C14.8311 4.29538 14.9467 4.33745 15.061 4.31931L17.1235 3.99214C18.2254 3.81734 19.2271 4.65787 19.2463 5.77337L19.2822 7.86134C19.2842 7.97707 19.3457 8.08359 19.445 8.14318L21.2352 9.21829C22.1917 9.79267 22.4187 11.0804 21.7164 11.9473L20.4018 13.5699C20.329 13.6598 20.3076 13.7809 20.3453 13.8904L21.0257 15.8647C21.3892 16.9195 20.7353 18.052 19.6401 18.2646L17.5901 18.6625C17.4765 18.6846 17.3823 18.7637 17.3408 18.8717L16.5929 20.8215C16.1933 21.8631 14.9646 22.3104 13.9889 21.7693L12.1627 20.7564C12.0615 20.7003 11.9385 20.7003 11.8373 20.7564L10.0111 21.7693C9.03542 22.3104 7.80665 21.8631 7.40709 20.8215L6.65918 18.8717C6.61773 18.7637 6.5235 18.6846 6.40988 18.6625L4.35988 18.2646C3.26466 18.052 2.61084 16.9195 2.97432 15.8647L3.65467 13.8904C3.69238 13.7809 3.67102 13.6598 3.59816 13.5699L2.28358 11.9473C1.58126 11.0804 1.80832 9.79267 2.76477 9.21829L4.55503 8.14318C4.65426 8.08359 4.71576 7.97707 4.71776 7.86134L4.7537 5.77337C4.7729 4.65788 5.7746 3.81734 6.87649 3.99214L8.93898 4.31931C9.05329 4.33745 9.16888 4.29538 9.24479 4.20801L10.6144 2.63164Z" fill="#FFED84"/>
<path fill-rule="evenodd" clip-rule="evenodd" d="M15.8889 9.08006C16.2975 9.50809 16.2818 10.1863 15.8537 10.5949L11.286 14.9551C11.063 15.168 10.7591 15.2745 10.4519 15.2474C10.1448 15.2203 9.86421 15.0621 9.68197 14.8134L8.02071 12.546C7.67098 12.0687 7.77441 11.3983 8.25173 11.0485C8.72906 10.6988 9.39952 10.8022 9.74925 11.2796L10.6892 12.5624L14.3741 9.04487C14.8021 8.63628 15.4803 8.65204 15.8889 9.08006Z" fill="#342E26"/>
</svg>
