<svg xmlns="http://www.w3.org/2000/svg" width="24" height="24" fill="currentColor" viewBox="0 0 24 24">
  <path d="m1.85 22.2 1.434-5.24A10.118 10.118 0 0 1 5.848 3.922a10.104 10.104 0 0 1 13.257.755 10.115 10.115 0 0 1-4.877 17.109 10.102 10.102 0 0 1-7.02-.993m-2.93-.994 3.18-.837a8.405 8.405 0 1 0-2.332-2.266m5.19-7.088c.112.279 0 .558-.614 1.239-.335.335-.223.446.369 1.284.591.837 1.562 1.618 2.455 2.037.893.418.838.39 1.211-.056.838-.949.614-1.172 1.451-.793l1.507.726c.447.223.47.223.475.502.005.28-.095 1.005-.39 1.317-.297.313-1.396 1.385-3.35.67-1.953-.714-3.292-1.284-5.525-4.297-2.232-3.014-.09-4.8.201-4.912.29-.111.39-.083.949-.072.149 0 .279.093.39.279"/>
</svg>
