<svg width="40" height="40" viewBox="0 0 40 40" fill="none" xmlns="http://www.w3.org/2000/svg">
<g clip-path="url(#clip0_4051_135)">
<path d="M0 10C0 4.47715 4.47715 0 10 0H30C35.5228 0 40 4.47715 40 10V30C40 35.5228 35.5228 40 30 40H10C4.47715 40 0 35.5228 0 30V10Z" fill="#FFED84"/>
<path fill-rule="evenodd" clip-rule="evenodd" d="M14.7275 40C9.6435 39.9998 7.82081 40 5.27404 40C3.32805 40 4.16391 40 0 40C1.33692e-06 37.6217 0.000261093 30.3561 5.30313e-05 25.2712L8.42657 8.45801H27.0584C29.5347 8.45801 31.542 10.464 31.542 12.9403V31.5496L14.7275 40ZM28.3922 28.6827H11.3187V11.6078H26.9575C27.7492 11.6078 28.3922 12.2495 28.3922 13.0412V28.6827Z" fill="#342E26"/>
</g>
<defs>
<clipPath id="clip0_4051_135">
<path d="M0 10C0 4.47715 4.47715 0 10 0H30C35.5228 0 40 4.47715 40 10V30C40 35.5228 35.5228 40 30 40H10C4.47715 40 0 35.5228 0 30V10Z" fill="white"/>
</clipPath>
</defs>
</svg>
