<svg viewBox="0 0 24 24" fill="none" xmlns="http://www.w3.org/2000/svg">
  <circle cx="12" cy="12" r="12" fill="#342E26"/>
  <g transform="translate(6.2, 5.3) scale(1.0)">
    <path d="M6.08376 0.011111C6.81153 0 7.53374 0.00555549 8.25595 0C8.3004 0.849989 8.60595 1.71665 9.22816 2.31664C9.85038 2.9333 10.7281 3.21663 11.5837 3.31107V5.54993C10.7837 5.52215 9.97815 5.35549 9.25038 5.01105C8.93372 4.86661 8.63928 4.68327 8.3504 4.49439C8.34484 6.11659 8.35595 7.73879 8.33928 9.35544C8.29484 10.1332 8.03929 10.9054 7.58929 11.5443C6.86153 12.611 5.60043 13.3054 4.306 13.3276C3.51157 13.3721 2.71713 13.1554 2.03936 12.7554C0.917156 12.0943 0.128277 10.8832 0.0116119 9.58321C0.000500934 9.30544 -0.00505455 9.02766 0.00605642 8.75545C0.106055 7.6999 0.628271 6.6888 1.43937 5.99992C2.36158 5.19993 3.65045 4.81661 4.85599 5.04438C4.86711 5.86659 4.83377 6.6888 4.83377 7.51102C4.28378 7.33324 3.63934 7.38324 3.15602 7.71657C2.80602 7.94434 2.53936 8.29434 2.40047 8.68878C2.28381 8.97211 2.31714 9.28322 2.32269 9.58321C2.45603 10.4943 3.33379 11.261 4.26711 11.1776C4.88933 11.1721 5.48376 10.811 5.80598 10.2832C5.91154 10.0999 6.0282 9.91099 6.03376 9.69432C6.08931 8.69989 6.06709 7.71101 6.07265 6.71658C6.0782 4.47772 6.06709 2.24442 6.08376 0.011111Z" fill="#F3F0E8"/>
  </g>
</svg>
