<svg viewBox="0 0 24 24" fill="none" xmlns="http://www.w3.org/2000/svg">
  <circle cx="12" cy="12" r="12" fill="#342E26"/>
  <g transform="translate(5.3, 5.3) scale(1.0)">
    <path d="M3.90562 0.0466759C3.19628 0.0801202 2.71189 0.193342 2.28839 0.359675C1.85017 0.530508 1.47866 0.759674 1.10905 1.13062C0.739493 1.50156 0.511826 1.87328 0.342269 2.31228C0.178157 2.73661 0.0669345 3.22144 0.0356011 3.93116C0.00426757 4.64088 -0.00267691 4.86905 0.000823109 6.67949C0.00426757 8.48982 0.0122676 8.71676 0.0466567 9.42798C0.0805457 10.1371 0.193324 10.6214 0.359714 11.045C0.530826 11.4833 0.759716 11.8546 1.13083 12.2244C1.50189 12.5941 1.87333 12.8212 2.31333 12.991C2.73734 13.1549 3.22228 13.2666 3.9319 13.2977C4.64151 13.3288 4.8699 13.336 6.6798 13.3325C8.4897 13.3291 8.71759 13.321 9.42859 13.2873C10.1397 13.2536 10.6214 13.14 11.0452 12.9744C11.4834 12.8029 11.855 12.5744 12.2245 12.2032C12.5939 11.832 12.8214 11.46 12.9909 11.0208C13.1552 10.5968 13.2668 10.1119 13.2976 9.40276C13.3287 8.69115 13.336 8.46398 13.3326 6.65388C13.3291 4.84372 13.3209 4.61677 13.2872 3.90583C13.2534 3.19489 13.1405 2.71211 12.9742 2.28822C12.8029 1.84995 12.5742 1.47889 12.2033 1.10889C11.8324 0.738896 11.46 0.511563 11.021 0.342508C10.5967 0.178342 10.1121 0.0665091 9.40248 0.0358426C8.69287 0.00517598 8.46448 -0.00276844 6.65391 0.000787103C4.84335 0.00423154 4.61668 0.0120093 3.90562 0.0466759ZM3.98351 12.0984C3.33351 12.0701 2.98056 11.9621 2.74534 11.8717C2.43389 11.7517 2.212 11.6066 1.97761 11.3745C1.74316 11.1424 1.59922 10.9197 1.47761 10.6089C1.38627 10.3737 1.27627 10.0211 1.24588 9.37115C1.21283 8.66865 1.20588 8.45771 1.202 6.67782C1.19811 4.89799 1.20494 4.68727 1.23572 3.9845C1.2635 3.33505 1.37216 2.98172 1.46239 2.74661C1.58239 2.43478 1.72694 2.21328 1.95961 1.97906C2.19228 1.74478 2.41428 1.6005 2.72534 1.47889C2.96034 1.38717 3.31284 1.27812 3.96256 1.24717C4.66562 1.21384 4.87629 1.20717 6.65591 1.20328C8.43553 1.19939 8.64675 1.20606 9.35009 1.23706C9.99954 1.26528 10.353 1.37289 10.5879 1.46373C10.8994 1.58373 11.1212 1.72784 11.3554 1.96095C11.5897 2.19395 11.7341 2.41517 11.8557 2.72689C11.9475 2.96117 12.0567 3.31355 12.0873 3.96372C12.1208 4.66677 12.1284 4.87761 12.1315 6.65705C12.1348 8.43648 12.1285 8.64782 12.0977 9.35037C12.0693 10.0004 11.9615 10.3534 11.871 10.5889C11.751 10.9003 11.6064 11.1223 11.3735 11.3564C11.1408 11.5905 10.919 11.7348 10.6078 11.8564C10.3732 11.948 10.0202 12.0573 9.37103 12.0883C8.66792 12.1213 8.45725 12.1283 6.67697 12.1321C4.89668 12.136 4.68657 12.1288 3.98351 12.0984ZM9.41837 3.10356C9.41863 3.26179 9.46582 3.4164 9.55396 3.54782C9.6421 3.67924 9.76723 3.78157 9.91353 3.84186C10.0598 3.90216 10.2207 3.91771 10.3759 3.88656C10.531 3.85541 10.6734 3.77894 10.7851 3.66684C10.8968 3.55474 10.9727 3.41204 11.0033 3.25678C11.0339 3.10152 11.0177 2.94069 10.9569 2.79461C10.896 2.64854 10.7932 2.52379 10.6615 2.43615C10.5297 2.3485 10.3749 2.3019 10.2167 2.30222C10.0046 2.30267 9.80133 2.38733 9.65162 2.5376C9.50192 2.68787 9.41801 2.89144 9.41837 3.10356ZM3.24362 6.67332C3.24734 8.56398 4.78285 10.0931 6.67308 10.0896C8.56342 10.086 10.0936 8.55065 10.0901 6.65999C10.0865 4.76933 8.55064 3.23972 6.66008 3.24344C4.76951 3.24717 3.24006 4.78288 3.24362 6.67332ZM4.44446 6.67093C4.44359 6.23143 4.57307 5.80153 4.81653 5.43561C5.05999 5.06969 5.40649 4.78418 5.81221 4.61518C6.21793 4.44618 6.66466 4.40129 7.0959 4.48618C7.52713 4.57107 7.92351 4.78192 8.23491 5.09209C8.54631 5.40225 8.75875 5.79778 8.84535 6.22868C8.93195 6.65957 8.88884 7.10647 8.72145 7.51286C8.55407 7.91925 8.26993 8.26688 7.90498 8.51178C7.54003 8.75669 7.11065 8.88788 6.67113 8.88876C6.37929 8.88937 6.09019 8.83249 5.82034 8.72136C5.55048 8.61023 5.30516 8.44703 5.09839 8.24108C4.89162 8.03513 4.72744 7.79046 4.61524 7.52105C4.50303 7.25165 4.445 6.96277 4.44446 6.67093Z" fill="#F3F0E8"/>
  </g>
</svg>
