<svg preserveAspectRatio="none" width="100%" height="100%" overflow="visible" style="display: block;" viewBox="0 0 128.012 33.8008" fill="none" xmlns="http://www.w3.org/2000/svg">
<path id="Wordmark" d="M10.0264 0C16.7718 0 20.0518 3.34677 20.0518 10.2295V23.5713C20.0518 30.454 16.7747 33.8008 10.0264 33.8008C3.27825 33.8007 0 30.4539 0 23.5713V10.2295C0 3.34686 3.27825 8.46798e-05 10.0264 0ZM33.457 4.33398H29.8398C29.2824 4.33398 29.1045 4.52184 29.1045 5.11035V5.72559H33.3359V5.72754H36.1641V5.23242C36.1641 1.99067 37.9069 0.205177 41.0693 0.205078H46.0166V4.33398H42.3994C41.8422 4.33405 41.6621 4.52195 41.6621 5.11035V5.72559H45.8965V9.26855C46.955 5.53786 49.7748 3.83117 54.3945 3.83105C60.4098 3.83105 63.2109 6.44041 63.2109 12.0439V20.7393H50.915V23.6543C50.9151 27.9329 51.9884 28.6221 54.5566 28.6221C56.71 28.622 57.6709 27.7121 57.6709 25.6689V22.7373H63.2109V26.3535C63.2109 31.3641 60.3807 33.8007 54.5566 33.8008C51.271 33.8008 48.9585 33.027 47.4883 31.4365C46.0931 29.9267 45.417 27.6169 45.417 24.3779V13.2119C45.417 12.1116 45.5014 11.1145 45.6738 10.2178H41.6621V33.5977H36.1641V10.2188H33.2617V10.2178H29.1045V33.5977H23.6035V10.2188H20.7012V5.72754H23.6035V5.23242C23.6035 1.99058 25.3472 0.205078 28.5098 0.205078H33.457V4.33398ZM82.96 28.2197H91.8896C91.8614 27.8705 91.8467 27.5057 91.8467 27.1211V22.8457C91.8468 17.0852 96.3669 16.3845 100.352 15.7676C101.448 15.5978 102.484 15.4368 103.416 15.1836V12.2441C103.416 9.7058 102.809 9.04785 100.463 9.04785C98.397 9.04786 97.8311 9.55325 97.8311 11.3984V14.1279H92.291V10.7529C92.291 6.03106 94.9386 3.83112 100.624 3.83105C103.684 3.83105 105.717 4.38806 107.016 5.58496C108.34 6.80613 108.956 8.73132 108.956 11.6406V33.5986H103.416V29.5195C103.365 30.1973 103.342 31.2488 102.502 32.2773C101.599 33.3823 100.027 33.8007 97.9629 33.8008C95.8984 33.8008 94.4034 33.2771 93.3916 32.2031C92.7508 31.5211 92.3122 30.6266 92.0703 29.499V33.5977H77.4199V0.202148H82.96V28.2197ZM115.717 8.55078C115.86 7.13999 116.003 6.2222 116.567 5.57129C117.562 4.42253 118.987 3.83015 121.009 3.83008C125.851 3.83008 128.012 6.67393 128.012 13.0498V24.5781C128.012 27.7703 127.487 30.0387 126.407 31.5117C125.279 33.0513 123.513 33.7998 121.009 33.7998C116.842 33.7997 116.08 31.5008 115.717 29.459V33.5977H110.177V0.202148H115.717V8.55078ZM75.001 3.83203C75.5032 3.83204 75.8007 3.87401 76.0879 3.91504L76.3213 3.94922V10.3818L75.9814 10.293C75.1396 10.0708 74.2156 9.94925 73.3809 9.94922C71.7975 9.94922 69.9113 10.369 69.9111 12.3682V33.6016H64.3711V4.03223H69.9111V8.55176C70.2905 5.84501 71.8555 3.83203 75.001 3.83203ZM36.1641 33.5996L36.1621 33.5977H36.1641V33.5996ZM102.06 19.624C98.7074 20.2042 97.3467 20.5139 97.3467 22.3633V26.4736C97.3467 28.4009 98.0149 29.1865 99.6562 29.1865C102.432 29.1865 103.416 28.5188 103.416 26.6357V19.3828C102.941 19.4691 102.494 19.549 102.06 19.624ZM119.073 8.84766C116.564 8.84768 115.717 9.60325 115.717 11.8418V25.749C115.717 28.017 116.565 28.7842 119.073 28.7842C121.276 28.7842 122.471 27.9519 122.471 23.5713V14.0186C122.471 9.67016 121.276 8.84766 119.073 8.84766ZM10.0264 5.29883C7.1852 5.29888 5.53913 6.20483 5.53906 10.833V22.9668C5.53906 27.5952 7.18655 28.5009 10.0264 28.501C12.8663 28.501 14.5107 27.5954 14.5107 22.9668V10.833C14.5107 6.20469 12.8677 5.29883 10.0264 5.29883ZM54.3125 9.00781C52.1096 9.00791 50.915 9.7941 50.915 13.9385V15.6826H57.6709V12.6885C57.6708 9.57705 56.5156 9.00781 54.3125 9.00781Z" fill="var(--fill-0, #342E26)"/>
</svg>
