<svg xmlns="http://www.w3.org/2000/svg" width="24" height="24" fill="none" viewBox="0 0 24 24">
  <path fill="#000" d="M6.568 2c-.252 0-.498 0-.706.017a2.022 2.022 0 0 0-.77.201 2 2 0 0 0-.874.874 2.022 2.022 0 0 0-.201.77C4 4.07 4 4.316 4 4.568v14.018c0 .647 0 1.197.036 1.619.033.38.107.936.481 1.35a2 2 0 0 0 1.774.636c.552-.08.963-.462 1.23-.736.296-.303.646-.727 1.057-1.226l2.959-3.593a8.89 8.89 0 0 1 .45-.526l.013-.013.013.013c.1.102.227.254.45.526l2.96 3.593c.41.499.76.923 1.056 1.226.267.274.678.655 1.23.736a2 2 0 0 0 1.774-.636c.374-.414.448-.97.481-1.35.036-.422.036-.972.036-1.619V4.568c0-.252 0-.498-.017-.706a2.022 2.022 0 0 0-.201-.77 2 2 0 0 0-.874-.874 2.022 2.022 0 0 0-.77-.201C17.93 2 17.684 2 17.432 2H6.568Z"/>
</svg>
