<svg xmlns="http://www.w3.org/2000/svg" width="24" height="24" fill="none" viewBox="0 0 24 24">
  <path stroke="currentColor" stroke-linecap="round" stroke-width="2" d="M12.022 11.663c.101-.676.48-1.042.86-1.3.37-.252.741-.58.741-1.185 0-.837-.67-1.515-1.5-1.515-.828 0-1.5.678-1.5 1.515m1.375 11.358 2.74-2.27a1 1 0 0 1 .638-.23h1.626a3 3 0 0 0 3-3V7a3 3 0 0 0-3-3h-10a3 3 0 0 0-3 3v8.036a3 3 0 0 0 3 3h1.65a1 1 0 0 1 .642.233l2.704 2.267Z"/>
  <path fill="#000" stroke="currentColor" stroke-width=".75" d="M12 13.625a.875.875 0 1 1 0 1.75.875.875 0 0 1 0-1.75Z"/>
</svg>
