<svg xmlns="http://www.w3.org/2000/svg" width="24" height="24" fill="none" viewBox="0 0 24 24">
  <path stroke="currentColor" stroke-width="2" d="M5.595 11.22c.506-.292.76-.438 1.028-.495.238-.051.485-.051.723 0 .269.057.522.203 1.028.495l2.236 1.291c.506.292.76.438.943.643.163.18.286.394.362.626.085.261.085.554.085 1.138V17.5c0 .584 0 .877-.085 1.138a1.735 1.735 0 0 1-.362.626c-.184.204-.437.35-.943.643l-2.236 1.29c-.506.293-.76.44-1.028.496-.238.05-.485.05-.723 0-.269-.057-.522-.203-1.028-.495l-2.236-1.291c-.506-.292-.76-.439-.944-.643a1.737 1.737 0 0 1-.36-.626c-.086-.261-.086-.554-.086-1.138v-2.582c0-.584 0-.877.085-1.138a1.76 1.76 0 0 1 .361-.626c.185-.205.438-.35.944-.643l2.236-1.29ZM12 13.313 6.984 16.21M12 13.313v-5.79m0 5.79 5.015 2.896m-10.03 0V22m0-5.791-5.016-2.896m15.046-8.686L12 7.522m0 0L6.984 4.627m15.046 8.686-5.015 2.896m0 0V22m-1.39-10.78c.507-.292.76-.438 1.029-.495.238-.051.484-.051.722 0 .27.057.523.203 1.03.495l2.235 1.291c.506.292.76.438.943.643.163.18.286.394.361.626.085.261.085.554.085 1.138V17.5c0 .584 0 .877-.085 1.138a1.736 1.736 0 0 1-.36.626c-.185.204-.438.35-.944.643l-2.236 1.29c-.506.293-.76.44-1.029.496-.238.05-.484.05-.722 0-.27-.057-.522-.203-1.029-.495l-2.235-1.291c-.507-.292-.76-.439-.944-.643a1.738 1.738 0 0 1-.361-.626C12 18.377 12 18.084 12 17.5v-2.582c0-.584 0-.877.085-1.138a1.73 1.73 0 0 1 .361-.626c.184-.205.438-.35.944-.643l2.235-1.29Z"/>
  <path stroke="currentColor" stroke-width="2" d="M10.61 2.534c.506-.293.76-.439 1.028-.496.239-.05.485-.05.723 0 .269.057.522.203 1.028.496l2.236 1.29c.506.293.76.439.944.643.163.181.286.394.36.626.086.262.086.554.086 1.139v2.581c0 .585 0 .877-.085 1.139a1.738 1.738 0 0 1-.361.625c-.185.205-.438.351-.944.643l-2.236 1.291c-.506.292-.759.439-1.028.496-.238.05-.485.05-.723 0-.269-.057-.522-.204-1.028-.496l-2.236-1.29c-.506-.293-.76-.44-.943-.644a1.737 1.737 0 0 1-.362-.625c-.085-.262-.085-.554-.085-1.139V6.232c0-.585 0-.877.085-1.139.076-.232.199-.445.362-.626.184-.204.437-.35.943-.643l2.236-1.29Z"/>
</svg>
