<svg xmlns="http://www.w3.org/2000/svg" width="24" height="24" fill="none" viewBox="0 0 24 24">
  <path stroke="currentColor" stroke-linecap="square" stroke-linejoin="round" stroke-width="2" d="M3 17V9.931A2.931 2.931 0 0 1 5.931 7c.98 0 1.896-.49 2.44-1.305l.238-.36A3 3 0 0 1 11.106 4h1.788a3 3 0 0 1 2.497 1.336l.239.359A2.931 2.931 0 0 0 18.069 7 2.931 2.931 0 0 1 21 9.931V17a3 3 0 0 1-3 3H6a3 3 0 0 1-3-3Z"/>
  <path stroke="currentColor" stroke-linecap="square" stroke-linejoin="round" stroke-width="2" d="M15 13a3 3 0 1 1-6 0 3 3 0 0 1 6 0Z"/>
</svg>
