<svg xmlns="http://www.w3.org/2000/svg" width="24" height="24" fill="none" viewBox="0 0 24 24">
  <path fill="#000" d="m5.813 18.2.998-.067-.998.067Zm12.374 0 .997.066-.997-.066ZM3 5a1 1 0 0 0 0 2V5Zm18 2a1 1 0 1 0 0-2v2Zm-10 4a1 1 0 1 0-2 0h2Zm-2 5a1 1 0 1 0 2 0H9Zm6-5a1 1 0 1 0-2 0h2Zm-2 5a1 1 0 1 0 2 0h-2Zm1.906-9.75a1 1 0 1 0 1.936-.5l-1.936.5ZM5 6l-.998.067.814 12.2.997-.067.998-.067-.813-12.2L5 6Zm3.807 15v1h6.386v-2H8.807v1Zm9.38-2.8.997.066.814-12.2L19 6l-.998-.067-.813 12.2.998.067ZM19 6V5H5v2h14V6ZM3 6v1h2V5H3v1Zm16 0v1h2V5h-2v1Zm-3.807 15v1a4 4 0 0 0 3.992-3.734l-.998-.066-.998-.067A2 2 0 0 1 15.193 20v1Zm-9.38-2.8-.997.066A4 4 0 0 0 8.806 22v-2a2 2 0 0 1-1.995-1.867l-.998.067ZM10 11H9v5h2v-5h-1Zm4 0h-1v5h2v-5h-1Zm-2-8v1c1.396 0 2.572.955 2.906 2.25l.968-.25.968-.25A5.002 5.002 0 0 0 12 2v1ZM8.126 6l.968.25A3.002 3.002 0 0 1 12 4V2a5.002 5.002 0 0 0-4.842 3.75l.968.25Z"/>
</svg>
