<svg width="24" height="24" viewBox="0 0 24 24" fill="currentColor" xmlns="http://www.w3.org/2000/svg">
<path d="M4.64259 5.21684C4.78992 4.92235 5.21012 4.92234 5.35744 5.21684C6.11169 6.72448 6.27502 6.88698 7.78322 7.64066C8.07758 7.78804 8.07775 8.2083 7.78322 8.35551C6.27494 9.10923 6.1118 9.27149 5.35744 10.7793C5.21003 11.0735 4.78998 11.0735 4.64259 10.7793C3.88823 9.27149 3.72509 9.10923 2.21681 8.35551C1.92244 8.20827 1.9226 7.78807 2.21681 7.64066C3.72498 6.88699 3.88837 6.72443 4.64259 5.21684Z"/>
<path d="M18.6348 5.21684C18.7821 4.92235 19.2022 4.92234 19.3496 5.21684C20.1038 6.7245 20.2672 6.88698 21.7754 7.64066C22.0698 7.78803 22.07 8.2083 21.7754 8.35551C20.2671 9.10923 20.1039 9.27149 19.3496 10.7793C19.2021 11.0735 18.7821 11.0735 18.6348 10.7793C17.8805 9.27149 17.7173 9.10923 16.209 8.35551C15.9146 8.20826 15.9148 7.78808 16.209 7.64066C17.7172 6.88699 17.8806 6.72443 18.6348 5.21684Z"/>
<path d="M11.6387 1.22074C11.786 0.92646 12.2061 0.926502 12.3535 1.22074C13.1078 2.72861 13.271 2.89086 14.7793 3.64457C15.0739 3.79181 15.0737 4.21206 14.7793 4.35941C13.2711 5.1131 13.1078 5.27553 12.3535 6.78324C12.2061 7.07773 11.786 7.07774 11.6387 6.78324C10.8845 5.27558 10.7211 5.11309 9.21291 4.35941C8.91868 4.21203 8.91855 3.79184 9.21291 3.64457C10.7212 2.89086 10.8844 2.72861 11.6387 1.22074Z"/>
<path d="M9.00732 12.1162V21.9734M15 12.1162V21.9734M15 18.0355C15 19.141 13.6585 20.0371 12.0037 20.0371C10.3488 20.0371 9.00732 19.141 9.00732 18.0355M15 12.0282C15 13.1337 13.6585 14.0298 12.0037 14.0298C10.3488 14.0298 9.00732 13.1337 9.00732 12.0282C9.00732 10.9227 10.3488 10.0266 12.0037 10.0266C13.6585 10.0266 15 10.9227 15 12.0282Z" fill="none" stroke="currentColor" stroke-width="2" stroke-linecap="round"/>
</svg>
