<svg xmlns="http://www.w3.org/2000/svg" width="24" height="24" fill="currentColor" viewBox="0 0 24 24">
  <path d="M14 9v1h2V9h-2Zm-5 7h1v-2H9v2ZM6.25 5.25a1 1 0 0 0 0 2v-2Zm.01 2a1 1 0 0 0 0-2v2ZM14 13.4l.58-.815A1 1 0 0 0 13 13.4h1Zm0 3.2h-1a1 1 0 0 0 1.58.815L14 16.6Zm2.25-1.6.58.815a1 1 0 0 0 0-1.63l-.58.815ZM2.945 10.835a1 1 0 0 0 1.11 1.664l-1.11-1.664Zm5 1.664a1 1 0 1 0 1.11-1.664l-1.11 1.664ZM6 4h6V2H6v2Zm8 2v3h2V6h-2ZM6 16h3v-2H6v2Zm6-6h6V8h-6v2Zm0 12h6v-2h-6v2Zm8-10v6h2v-6h-2ZM5.5 6.25a.75.75 0 0 1 .75-.75v2c.69 0 1.25-.56 1.25-1.25h-2Zm.75-.75a.75.75 0 0 1 .75.75H5c0 .69.56 1.25 1.25 1.25v-2Zm.75.75a.75.75 0 0 1-.75.75V5C5.56 5 5 5.56 5 6.25h2ZM6.25 7a.75.75 0 0 1-.75-.75h2C7.5 5.56 6.94 5 6.25 5v2Zm0 .25h.01v-2h-.01v2ZM13 13.4v3.2h2v-3.2h-2Zm1.58 4.015 2.25-1.6-1.16-1.63-2.25 1.6 1.16 1.63Zm2.25-3.23-2.25-1.6-1.16 1.63 2.25 1.6 1.16-1.63ZM4.054 12.499l.836-.558-1.11-1.664-.836.558 1.11 1.664ZM2 6v6h2V6H2Zm5.11 5.941.835.558 1.11-1.664-.836-.558-1.11 1.665ZM8 12v6h2v-6H8Zm-3.11-.059a2 2 0 0 1 2.22 0l1.109-1.664a4 4 0 0 0-4.438 0l1.11 1.665ZM18 22a4 4 0 0 0 4-4h-2a2 2 0 0 1-2 2v2Zm-6-2a2 2 0 0 1-2-2H8a4 4 0 0 0 4 4v-2Zm-6-6a2 2 0 0 1-2-2H2a4 4 0 0 0 4 4v-2Zm12-4a2 2 0 0 1 2 2h2a4 4 0 0 0-4-4v2Zm-6-6a2 2 0 0 1 2 2h2a4 4 0 0 0-4-4v2Zm0 4a4 4 0 0 0-4 4h2a2 2 0 0 1 2-2V8ZM6 2a4 4 0 0 0-4 4h2a2 2 0 0 1 2-2V2Z"/>
</svg>
