<svg xmlns="http://www.w3.org/2000/svg" width="24" height="24" fill="currentColor" viewBox="0 0 24 24">
  <path fill-rule="evenodd" d="M10.039 2.956a4 4 0 0 1 3.922 0l5 2.812c.329.185.625.412.883.673L12 10.853 4.157 6.44c.258-.26.553-.488.882-.673l5-2.812ZM3.15 8.169A4.01 4.01 0 0 0 3 9.255v5.49a4 4 0 0 0 2.039 3.487l5 2.812c.306.173.63.302.962.387v-8.846L3.15 8.169ZM13 21.431c.332-.086.655-.215.961-.387l5-2.812A4 4 0 0 0 21 14.745v-5.49c0-.373-.052-.737-.15-1.085L13 12.585v8.846Z" clip-rule="evenodd"/>
</svg>
