<svg xmlns="http://www.w3.org/2000/svg" width="24" height="24" fill="none" viewBox="0 0 24 24">
  <path stroke="currentColor" stroke-linecap="square" stroke-linejoin="round" stroke-width="2" d="M10.595 15.433a.83.83 0 0 0-.567-.787l-2.462-.82a1.244 1.244 0 0 0-.787 0l-2.462.82a.83.83 0 0 0-.567.787v2.062c0 2.063 1.763 3.044 3.422 3.94 1.66-.896 3.423-1.877 3.423-3.94v-2.062Z"/>
  <path fill="#000" d="m13.336 3.336.707-.707-.707.707Zm5.328 5.328.707-.707-.707.707ZM3.75 10.75a1 1 0 1 0 2 0h-2Zm9.5 9.5a1 1 0 1 0 0 2v-2Zm-5.5-17.5v1h4.172v-2H7.75v1Zm11.5 7.328h-1v8.172h2v-8.172h-1Zm-5.914-6.742-.707.707 5.328 5.328.707-.707.707-.707-5.328-5.328-.707.707ZM4.75 10.75h1v-5h-2v5h1Zm11.5 10.5v-1h-3v2h3v-1Zm3-11.172h1a3 3 0 0 0-.879-2.12l-.707.706-.707.707a1 1 0 0 1 .293.707h1ZM11.922 2.75v1a1 1 0 0 1 .707.293l.707-.707.707-.707a3 3 0 0 0-2.121-.879v1Zm7.328 15.5h-1a2 2 0 0 1-2 2v2a4 4 0 0 0 4-4h-1ZM7.75 2.75v-1a4 4 0 0 0-4 4h2a2 2 0 0 1 2-2v-1Zm5 .5h-1v4h2v-4h-1Zm2 6v1h4v-2h-4v1Zm-2-2h-1a3 3 0 0 0 3 3v-2a1 1 0 0 1-1-1h-1Z"/>
</svg>
