<svg xmlns="http://www.w3.org/2000/svg" width="24" height="24" fill="none" viewBox="0 0 24 24">
  <path stroke="currentColor" stroke-linejoin="round" stroke-width="2" d="m7.677 5.325-.372-.085A1.722 1.722 0 0 0 5.24 7.305l.085.372a2.41 2.41 0 0 1-1.011 2.547l-.565.377a1.682 1.682 0 0 0 0 2.798l.565.377a2.41 2.41 0 0 1 1.011 2.547l-.085.372a1.722 1.722 0 0 0 2.065 2.065l.372-.085a2.41 2.41 0 0 1 2.547 1.011l.377.565a1.682 1.682 0 0 0 2.798 0l.377-.565a2.41 2.41 0 0 1 2.547-1.011l.372.085a1.722 1.722 0 0 0 2.065-2.065l-.085-.372a2.41 2.41 0 0 1 1.011-2.547l.565-.377a1.682 1.682 0 0 0 0-2.798l-.565-.377a2.41 2.41 0 0 1-1.011-2.547l.085-.372a1.722 1.722 0 0 0-2.065-2.065l-.372.085a2.41 2.41 0 0 1-2.547-1.011l-.377-.565a1.682 1.682 0 0 0-2.798 0l-.377.565a2.41 2.41 0 0 1-2.547 1.011Z"/>
  <path stroke="currentColor" stroke-linejoin="round" stroke-width="2" d="M15 12a3 3 0 1 1-6 0 3 3 0 0 1 6 0Z"/>
</svg>
