<svg xmlns="http://www.w3.org/2000/svg" width="24" height="24" fill="none" viewBox="0 0 24 24">
  <path stroke="currentColor" stroke-linecap="round" stroke-linejoin="round" stroke-width="2" d="M11.772 2.143a.253.253 0 0 1 .456 0l2.682 5.592a.25.25 0 0 0 .195.14l6.175.81c.21.028.295.286.141.432l-4.517 4.265a.25.25 0 0 0-.075.228l1.134 6.092a.252.252 0 0 1-.369.267l-5.474-2.955a.254.254 0 0 0-.24 0l-5.474 2.955a.252.252 0 0 1-.37-.267l1.135-6.092a.25.25 0 0 0-.075-.228L2.58 9.117a.251.251 0 0 1 .14-.432l6.176-.81a.253.253 0 0 0 .195-.14l2.682-5.592Z"/>
</svg>
