<svg width="24" height="24" viewBox="0 0 24 24" fill="none" xmlns="http://www.w3.org/2000/svg">
<path d="M4 7C4 5.34315 5.34315 4 7 4H17C18.6569 4 20 5.34315 20 7V17C20 18.6569 18.6569 20 17 20H7C5.34315 20 4 18.6569 4 17V7Z" stroke="currentColor" stroke-width="2" stroke-linejoin="round"/>
<path d="M11.3074 7.9151C11.5636 7.29913 12.4362 7.29913 12.6924 7.9151L13.3449 9.48385C13.4529 9.74353 13.6971 9.92096 13.9774 9.94343L15.671 10.0792C16.336 10.1325 16.6057 10.9624 16.099 11.3964L14.8087 12.5017C14.5951 12.6847 14.5018 12.9718 14.5671 13.2453L14.9613 14.898C15.1161 15.5469 14.4101 16.0598 13.8408 15.7121L12.3908 14.8264C12.1508 14.6798 11.849 14.6798 11.609 14.8264L10.159 15.7121C9.58973 16.0598 8.88379 15.5469 9.03858 14.898L9.4328 13.2453C9.49806 12.9718 9.40478 12.6847 9.19119 12.5017L7.90084 11.3964C7.39419 10.9624 7.66383 10.1325 8.32882 10.0792L10.0224 9.94343C10.3027 9.92096 10.5469 9.74353 10.6549 9.48385L11.3074 7.9151Z" fill="currentColor"/>
</svg>
