<svg xmlns="http://www.w3.org/2000/svg" width="24" height="24" fill="none" viewBox="0 0 24 24">
  <path fill="#000" d="M14.708 5H9.292c-.633 0-1.142 0-1.555.034-.426.034-.799.108-1.144.284-.55.28-.995.726-1.275 1.275-.176.345-.25.718-.284 1.144C5 8.15 5 8.659 5 9.292v5.416c0 .633 0 1.142.034 1.555.034.425.108.799.284 1.144.28.55.726.995 1.275 1.275.345.176.718.25 1.144.284.413.034.922.034 1.555.034h5.416c.633 0 1.142 0 1.555-.034.425-.035.799-.108 1.144-.284.55-.28.995-.726 1.275-1.274.176-.346.25-.72.284-1.145.034-.413.034-.923.034-1.555V9.292c0-.633 0-1.142-.034-1.555-.035-.426-.108-.799-.284-1.144a2.916 2.916 0 0 0-1.274-1.275c-.346-.176-.72-.25-1.145-.284C15.85 5 15.34 5 14.708 5Z"/>
</svg>
