<svg xmlns="http://www.w3.org/2000/svg" width="24" height="24" fill="currentColor" viewBox="0 0 24 24">
  <path d="M12.438 2.017C13.529 2 14.613 2.008 15.696 2c.067 1.275.525 2.575 1.458 3.475.934.925 2.25 1.35 3.534 1.492v3.358c-1.2-.042-2.409-.292-3.5-.808-.475-.217-.917-.492-1.35-.775-.009 2.433.008 4.866-.017 7.291a6.366 6.366 0 0 1-1.125 3.284c-1.092 1.6-2.983 2.641-4.925 2.674-1.192.067-2.383-.258-3.4-.858-1.683-.992-2.867-2.808-3.042-4.758a15.445 15.445 0 0 1-.008-1.242c.15-1.583.933-3.1 2.15-4.133 1.383-1.2 3.317-1.775 5.125-1.433.017 1.233-.033 2.466-.033 3.7-.825-.267-1.792-.192-2.517.308a2.893 2.893 0 0 0-1.133 1.458c-.175.425-.125.892-.117 1.342.2 1.366 1.517 2.517 2.917 2.392.933-.009 1.825-.55 2.308-1.342.158-.275.333-.559.342-.884.083-1.491.05-2.975.058-4.466.008-3.358-.008-6.708.017-10.058Z"/>
</svg>
