<svg xmlns="http://www.w3.org/2000/svg" width="24" height="24" fill="currentColor" viewBox="0 0 24 24">
  <path d="M3.2 5.4C1.987 5.4 1 6.387 1 7.6v8.8c0 1.213.987 2.2 2.2 2.2h17.6c1.213 0 2.2-.987 2.2-2.2V7.6c0-1.213-.987-2.2-2.2-2.2H3.2Zm17.6 1.65c.302 0 .55.248.55.55v8.8c0 .303-.248.55-.55.55H12v-9.9h8.8ZM7.13 9.247l2.2 4.95a.688.688 0 1 1-1.26.556l-.305-.69h-2.53l-.306.69a.69.69 0 0 1-.907.351.69.69 0 0 1-.351-.907l2.2-4.95a.69.69 0 0 1 .629-.41.69.69 0 0 1 .63.41Zm.023 3.44-.653-1.47-.653 1.47h1.306Zm9.522-3.85a.69.69 0 0 0-.688.688v.137H14.2a.69.69 0 0 0-.688.688c0 .378.31.688.688.688h3.682a5.391 5.391 0 0 1-1.025 1.546l-.017-.017-.502-.502a.689.689 0 0 0-.973.973l.416.416a5.887 5.887 0 0 1-.636.337l-.123.055a.69.69 0 0 0-.351.907.69.69 0 0 0 .907.351l.124-.055a6.542 6.542 0 0 0 1.169-.667c.148.103.296.2.45.292l.65.389a.687.687 0 0 0 .705-1.179l-.65-.389c-.031-.017-.062-.037-.093-.055a6.727 6.727 0 0 0 1.361-2.248l.062-.155h.069a.69.69 0 0 0 .688-.687.69.69 0 0 0-.688-.688h-2.062v-.137a.69.69 0 0 0-.688-.688Z"/>
</svg>
