<svg xmlns="http://www.w3.org/2000/svg" width="24" height="24" fill="none" viewBox="0 0 24 24">
  <path stroke="currentColor" stroke-linecap="round" stroke-width="2" d="M17.409 20.293a5.922 5.922 0 0 0-5.415-3.424c-2.76 0-4.67 1.792-5.377 3.424m9.134-7.172a3.751 3.751 0 1 1-7.502 0 3.751 3.751 0 0 1 7.502 0Zm2.654-2.241a3.008 3.008 0 0 0 0-6.016c-1.46 0-2.702 1.073-2.975 2.453m3.262 3.549c1.831.13 3.157.914 4.181 2.285M5.592 10.88a3.008 3.008 0 0 1 0-6.016c1.46 0 2.702 1.073 2.974 2.453m-3.261 3.549c-1.832.13-3.157.914-4.182 2.285"/>
</svg>
