<svg xmlns="http://www.w3.org/2000/svg" width="24" height="24" fill="none" viewBox="0 0 24 24">
  <path stroke="currentColor" stroke-linecap="round" stroke-linejoin="round" stroke-width="2" d="m6.392 16.696 3.49-5.704C7.864 9.78 7.225 7.242 8.437 5.225a4.26 4.26 0 0 1 5.845-1.455c1.176.707 1.777 2 1.926 3.264m-4.278.176 3.326 5.8c2.032-1.185 4.566-.526 5.75 1.506a4.26 4.26 0 0 1-1.532 5.826c-1.184.69-2.607.597-3.788.12m1.869-3.873-6.687-.051c0 2.352-1.845 4.209-4.198 4.209a4.26 4.26 0 0 1-4.26-4.26c0-1.371.799-2.553 1.806-3.332"/>
</svg>
