<svg xmlns="http://www.w3.org/2000/svg" width="24" height="24" fill="none" viewBox="0 0 24 24">
  <path stroke="currentColor" stroke-linejoin="round" stroke-width="2" d="m10.547 20.943.454.057c.965-2.309 2.406-4.303 4.107-6.098.558-.589.893-1.36.893-2.172V6.275c0-.778-.447-1.496-1.178-1.763-2.48-.902-5.073-1.096-7.695-.868-1.601.138-2.856 1.375-3.209 2.943l-.845 3.754A3 3 0 0 0 6.001 14h3l-.949 3.084a3 3 0 0 0 2.495 3.86Z"/>
  <path stroke="currentColor" stroke-linejoin="round" stroke-width="2" d="M21 12a2 2 0 0 1-2 2h-1a2 2 0 0 1-2-2V6a2 2 0 0 1 2-2h1a2 2 0 0 1 2 2v6Z"/>
</svg>
